<svg width="184" height="184" viewBox="0 0 184 184" fill="none" xmlns="http://www.w3.org/2000/svg">
<circle cx="92" cy="92" r="92" fill="white"/>
<path d="M164.906 92.0001C164.906 132.265 132.265 164.906 92 164.906C51.7353 164.906 19.0943 132.265 19.0943 92.0001C19.0943 73.0435 26.3293 55.7766 38.1886 42.8103C39.5735 41.2961 41.0214 39.8406 42.5283 38.4479C43.9253 37.1567 45.3729 35.9195 46.8679 34.7396C59.2816 24.9418 74.9579 19.0945 92 19.0945C132.265 19.0945 164.906 51.7355 164.906 92.0001Z" stroke="#E3E6F3" stroke-width="19.0943"/>
<path d="M92 19.0945C132.265 19.0945 164.906 51.7355 164.906 92.0001C164.906 132.265 132.265 164.906 92 164.906C51.7353 164.906 19.0943 132.265 19.0943 92.0001C19.0943 79.0776 22.4564 66.9403 28.3536 56.4152" stroke="url(#paint0_linear_110_3533)" stroke-width="19.0943" stroke-linecap="round"/>
<path d="M92 19.0945C132.265 19.0945 164.906 51.7355 164.906 92.0001C164.906 132.265 132.265 164.906 92 164.906C51.7353 164.906 19.0943 132.265 19.0943 92.0001C19.0943 79.0776 22.4564 66.9403 28.3536 56.4152" stroke="url(#paint1_linear_110_3533)" stroke-width="19.0943" stroke-linecap="round"/>
<path d="M60.533 91.104C58.133 89.856 56.933 87.924 56.933 85.308C56.933 84.012 57.257 82.836 57.905 81.78C58.577 80.7 59.573 79.848 60.893 79.224C62.237 78.576 63.869 78.252 65.789 78.252C67.709 78.252 69.329 78.576 70.649 79.224C71.993 79.848 72.989 80.7 73.637 81.78C74.309 82.836 74.645 84.012 74.645 85.308C74.645 86.628 74.321 87.792 73.673 88.8C73.025 89.784 72.161 90.552 71.081 91.104C72.401 91.68 73.433 92.52 74.177 93.624C74.921 94.728 75.293 96.036 75.293 97.548C75.293 99.18 74.873 100.608 74.033 101.832C73.217 103.032 72.089 103.956 70.649 104.604C69.209 105.252 67.589 105.576 65.789 105.576C63.989 105.576 62.369 105.252 60.929 104.604C59.513 103.956 58.385 103.032 57.545 101.832C56.729 100.608 56.321 99.18 56.321 97.548C56.321 96.036 56.693 94.728 57.437 93.624C58.181 92.496 59.213 91.656 60.533 91.104ZM69.749 86.028C69.749 84.852 69.389 83.94 68.669 83.292C67.973 82.644 67.013 82.32 65.789 82.32C64.589 82.32 63.629 82.644 62.909 83.292C62.213 83.94 61.865 84.864 61.865 86.064C61.865 87.144 62.225 88.008 62.945 88.656C63.689 89.304 64.637 89.628 65.789 89.628C66.941 89.628 67.889 89.304 68.633 88.656C69.377 87.984 69.749 87.108 69.749 86.028ZM65.789 93.3C64.421 93.3 63.305 93.648 62.441 94.344C61.601 95.04 61.181 96.036 61.181 97.332C61.181 98.532 61.589 99.516 62.405 100.284C63.245 101.028 64.373 101.4 65.789 101.4C67.205 101.4 68.321 101.016 69.137 100.248C69.953 99.48 70.361 98.508 70.361 97.332C70.361 96.06 69.941 95.076 69.101 94.38C68.261 93.66 67.157 93.3 65.789 93.3ZM78.9139 91.536C78.9139 87.384 79.6579 84.132 81.1459 81.78C82.6579 79.428 85.1539 78.252 88.6339 78.252C92.1139 78.252 94.5979 79.428 96.0859 81.78C97.5979 84.132 98.3539 87.384 98.3539 91.536C98.3539 95.712 97.5979 98.988 96.0859 101.364C94.5979 103.74 92.1139 104.928 88.6339 104.928C85.1539 104.928 82.6579 103.74 81.1459 101.364C79.6579 98.988 78.9139 95.712 78.9139 91.536ZM93.3859 91.536C93.3859 89.76 93.2659 88.272 93.0259 87.072C92.8099 85.848 92.3539 84.852 91.6579 84.084C90.9859 83.316 89.9779 82.932 88.6339 82.932C87.2899 82.932 86.2699 83.316 85.5739 84.084C84.9019 84.852 84.4459 85.848 84.2059 87.072C83.9899 88.272 83.8819 89.76 83.8819 91.536C83.8819 93.36 83.9899 94.896 84.2059 96.144C84.4219 97.368 84.8779 98.364 85.5739 99.132C86.2699 99.876 87.2899 100.248 88.6339 100.248C89.9779 100.248 90.9979 99.876 91.6939 99.132C92.3899 98.364 92.8459 97.368 93.0619 96.144C93.2779 94.896 93.3859 93.36 93.3859 91.536ZM101.251 85.2C101.251 83.376 101.779 81.948 102.835 80.916C103.915 79.884 105.295 79.368 106.975 79.368C108.655 79.368 110.023 79.884 111.079 80.916C112.159 81.948 112.699 83.376 112.699 85.2C112.699 87.048 112.159 88.488 111.079 89.52C110.023 90.552 108.655 91.068 106.975 91.068C105.295 91.068 103.915 90.552 102.835 89.52C101.779 88.488 101.251 87.048 101.251 85.2ZM124.363 79.8L110.215 105H105.319L119.431 79.8H124.363ZM106.939 82.392C105.619 82.392 104.959 83.328 104.959 85.2C104.959 87.096 105.619 88.044 106.939 88.044C107.587 88.044 108.091 87.816 108.451 87.36C108.811 86.88 108.991 86.16 108.991 85.2C108.991 83.328 108.307 82.392 106.939 82.392ZM117.055 99.564C117.055 97.716 117.583 96.288 118.639 95.28C119.719 94.248 121.099 93.732 122.779 93.732C124.459 93.732 125.815 94.248 126.847 95.28C127.903 96.288 128.431 97.716 128.431 99.564C128.431 101.412 127.903 102.852 126.847 103.884C125.815 104.916 124.459 105.432 122.779 105.432C121.075 105.432 119.695 104.916 118.639 103.884C117.583 102.852 117.055 101.412 117.055 99.564ZM122.743 96.756C121.375 96.756 120.691 97.692 120.691 99.564C120.691 101.46 121.375 102.408 122.743 102.408C124.087 102.408 124.759 101.46 124.759 99.564C124.759 97.692 124.087 96.756 122.743 96.756Z" fill="#292D32"/>
<circle cx="30.209" cy="52.1791" r="15.791" fill="#7B40F2" stroke="white" stroke-width="4.1194"/>
<defs>
<linearGradient id="paint0_linear_110_3533" x1="74.6415" y1="160.566" x2="122.377" y2="19.0945" gradientUnits="userSpaceOnUse">
<stop stop-color="#7B40F2"/>
<stop offset="1" stop-color="#7B40F2"/>
</linearGradient>
<linearGradient id="paint1_linear_110_3533" x1="74.6415" y1="160.566" x2="122.377" y2="19.0945" gradientUnits="userSpaceOnUse">
<stop stop-color="#7B40F2"/>
<stop offset="1" stop-color="#7B40F2"/>
</linearGradient>
</defs>
</svg>
