<svg width="184" height="184" viewBox="0 0 184 184" fill="none" xmlns="http://www.w3.org/2000/svg">
<circle cx="92" cy="92" r="92" fill="white"/>
<path d="M164.906 92.0001C164.906 132.265 132.265 164.906 92 164.906C51.7353 164.906 19.0943 132.265 19.0943 92.0001C19.0943 73.0435 26.3293 55.7766 38.1886 42.8103C39.5735 41.2961 41.0214 39.8406 42.5283 38.4479C43.9253 37.1567 45.3729 35.9195 46.8679 34.7396C59.2816 24.9418 74.9579 19.0945 92 19.0945C132.265 19.0945 164.906 51.7355 164.906 92.0001Z" stroke="#E3E6F3" stroke-width="19.0943"/>
<path d="M164.906 92.0001C164.906 51.7355 132.265 19.0945 92 19.0945" stroke="url(#paint0_linear_110_3539)" stroke-width="19.0943" stroke-linecap="round"/>
<path d="M164.906 92.0001C164.906 51.7355 132.265 19.0945 92 19.0945" stroke="url(#paint1_linear_110_3539)" stroke-width="19.0943" stroke-linecap="round"/>
<path d="M58.5083 99.312C60.8123 97.392 62.6483 95.796 64.0163 94.524C65.3843 93.228 66.5243 91.884 67.4363 90.492C68.3483 89.1 68.8043 87.732 68.8043 86.388C68.8043 85.164 68.5163 84.204 67.9403 83.508C67.3643 82.812 66.4763 82.464 65.2763 82.464C64.0763 82.464 63.1523 82.872 62.5043 83.688C61.8563 84.48 61.5203 85.572 61.4963 86.964H56.6003C56.6963 84.084 57.5483 81.9 59.1563 80.412C60.7883 78.924 62.8523 78.18 65.3483 78.18C68.0843 78.18 70.1843 78.912 71.6483 80.376C73.1123 81.816 73.8443 83.724 73.8443 86.1C73.8443 87.972 73.3403 89.76 72.3323 91.464C71.3243 93.168 70.1723 94.656 68.8763 95.928C67.5803 97.176 65.8883 98.688 63.8003 100.464H74.4203V104.64H56.6363V100.896L58.5083 99.312ZM94.8761 83.112H83.2121V89.268C83.7161 88.644 84.4361 88.14 85.3721 87.756C86.3081 87.348 87.3041 87.144 88.3601 87.144C90.2801 87.144 91.8521 87.564 93.0761 88.404C94.3001 89.244 95.1881 90.324 95.7401 91.644C96.2921 92.94 96.5681 94.332 96.5681 95.82C96.5681 98.58 95.7761 100.8 94.1921 102.48C92.6321 104.16 90.4001 105 87.4961 105C84.7601 105 82.5761 104.316 80.9441 102.948C79.3121 101.58 78.3881 99.792 78.1721 97.584H83.0681C83.2841 98.544 83.7641 99.312 84.5081 99.888C85.2761 100.464 86.2481 100.752 87.4241 100.752C88.8401 100.752 89.9081 100.308 90.6281 99.42C91.3481 98.532 91.7081 97.356 91.7081 95.892C91.7081 94.404 91.3361 93.276 90.5921 92.508C89.8721 91.716 88.8041 91.32 87.3881 91.32C86.3801 91.32 85.5401 91.572 84.8681 92.076C84.1961 92.58 83.7161 93.252 83.4281 94.092H78.6041V78.684H94.8761V83.112ZM99.4681 85.2C99.4681 83.376 99.9961 81.948 101.052 80.916C102.132 79.884 103.512 79.368 105.192 79.368C106.872 79.368 108.24 79.884 109.296 80.916C110.376 81.948 110.916 83.376 110.916 85.2C110.916 87.048 110.376 88.488 109.296 89.52C108.24 90.552 106.872 91.068 105.192 91.068C103.512 91.068 102.132 90.552 101.052 89.52C99.9961 88.488 99.4681 87.048 99.4681 85.2ZM122.58 79.8L108.432 105H103.536L117.648 79.8H122.58ZM105.156 82.392C103.836 82.392 103.176 83.328 103.176 85.2C103.176 87.096 103.836 88.044 105.156 88.044C105.804 88.044 106.308 87.816 106.668 87.36C107.028 86.88 107.208 86.16 107.208 85.2C107.208 83.328 106.524 82.392 105.156 82.392ZM115.272 99.564C115.272 97.716 115.8 96.288 116.856 95.28C117.936 94.248 119.316 93.732 120.996 93.732C122.676 93.732 124.032 94.248 125.064 95.28C126.12 96.288 126.648 97.716 126.648 99.564C126.648 101.412 126.12 102.852 125.064 103.884C124.032 104.916 122.676 105.432 120.996 105.432C119.292 105.432 117.912 104.916 116.856 103.884C115.8 102.852 115.272 101.412 115.272 99.564ZM120.96 96.756C119.592 96.756 118.908 97.692 118.908 99.564C118.908 101.46 119.592 102.408 120.96 102.408C122.304 102.408 122.976 101.46 122.976 99.564C122.976 97.692 122.304 96.756 120.96 96.756Z" fill="#292D32"/>
<circle cx="164.851" cy="91.8507" r="15.791" fill="#7B40F2" stroke="white" stroke-width="4.1194"/>
<defs>
<linearGradient id="paint0_linear_110_3539" x1="74.6414" y1="160.566" x2="122.377" y2="19.0945" gradientUnits="userSpaceOnUse">
<stop stop-color="#7B40F2"/>
<stop offset="1" stop-color="#7B40F2"/>
</linearGradient>
<linearGradient id="paint1_linear_110_3539" x1="74.6414" y1="160.566" x2="122.377" y2="19.0945" gradientUnits="userSpaceOnUse">
<stop stop-color="#7B40F2"/>
<stop offset="1" stop-color="#7B40F2"/>
</linearGradient>
</defs>
</svg>
