<svg width="184" height="184" viewBox="0 0 184 184" fill="none" xmlns="http://www.w3.org/2000/svg">
<circle cx="92" cy="92" r="92" fill="white"/>
<path d="M164.906 92.0001C164.906 132.265 132.265 164.906 92 164.906C51.7353 164.906 19.0943 132.265 19.0943 92.0001C19.0943 73.0435 26.3293 55.7766 38.1886 42.8103C39.5735 41.2961 41.0214 39.8406 42.5283 38.4479C43.9253 37.1567 45.3729 35.9195 46.8679 34.7396C59.2816 24.9418 74.9579 19.0945 92 19.0945C132.265 19.0945 164.906 51.7355 164.906 92.0001Z" stroke="#E3E6F3" stroke-width="19.0943"/>
<path d="M92 19.0945C132.265 19.0945 164.906 51.7355 164.906 92.0001C164.906 132.265 132.265 164.906 92 164.906C84.5164 164.906 77.2963 163.778 70.5001 161.684" stroke="url(#paint0_linear_110_3561)" stroke-width="19.0943" stroke-linecap="round"/>
<path d="M92 19.0945C132.265 19.0945 164.906 51.7355 164.906 92.0001C164.906 132.265 132.265 164.906 92 164.906C80.718 164.906 70.0346 162.343 60.5001 157.768" stroke="url(#paint1_linear_110_3561)" stroke-width="19.0943" stroke-linecap="round"/>
<path d="M73.8162 83.112H62.1522V89.268C62.6562 88.644 63.3762 88.14 64.3122 87.756C65.2482 87.348 66.2442 87.144 67.3002 87.144C69.2202 87.144 70.7922 87.564 72.0162 88.404C73.2402 89.244 74.1282 90.324 74.6802 91.644C75.2322 92.94 75.5082 94.332 75.5082 95.82C75.5082 98.58 74.7162 100.8 73.1322 102.48C71.5722 104.16 69.3402 105 66.4362 105C63.7002 105 61.5162 104.316 59.8842 102.948C58.2522 101.58 57.3282 99.792 57.1122 97.584H62.0082C62.2242 98.544 62.7042 99.312 63.4482 99.888C64.2162 100.464 65.1882 100.752 66.3642 100.752C67.7802 100.752 68.8482 100.308 69.5682 99.42C70.2882 98.532 70.6482 97.356 70.6482 95.892C70.6482 94.404 70.2762 93.276 69.5322 92.508C68.8122 91.716 67.7442 91.32 66.3282 91.32C65.3202 91.32 64.4802 91.572 63.8082 92.076C63.1362 92.58 62.6562 93.252 62.3682 94.092H57.5442V78.684H73.8162V83.112ZM96.6242 83.112H84.9602V89.268C85.4642 88.644 86.1842 88.14 87.1202 87.756C88.0562 87.348 89.0522 87.144 90.1082 87.144C92.0282 87.144 93.6002 87.564 94.8242 88.404C96.0482 89.244 96.9362 90.324 97.4882 91.644C98.0402 92.94 98.3162 94.332 98.3162 95.82C98.3162 98.58 97.5242 100.8 95.9402 102.48C94.3802 104.16 92.1482 105 89.2442 105C86.5082 105 84.3242 104.316 82.6922 102.948C81.0602 101.58 80.1362 99.792 79.9202 97.584H84.8162C85.0322 98.544 85.5122 99.312 86.2562 99.888C87.0242 100.464 87.9962 100.752 89.1722 100.752C90.5882 100.752 91.6562 100.308 92.3762 99.42C93.0962 98.532 93.4562 97.356 93.4562 95.892C93.4562 94.404 93.0842 93.276 92.3402 92.508C91.6202 91.716 90.5522 91.32 89.1362 91.32C88.1282 91.32 87.2882 91.572 86.6162 92.076C85.9442 92.58 85.4642 93.252 85.1762 94.092H80.3522V78.684H96.6242V83.112ZM101.216 85.2C101.216 83.376 101.744 81.948 102.8 80.916C103.88 79.884 105.26 79.368 106.94 79.368C108.62 79.368 109.988 79.884 111.044 80.916C112.124 81.948 112.664 83.376 112.664 85.2C112.664 87.048 112.124 88.488 111.044 89.52C109.988 90.552 108.62 91.068 106.94 91.068C105.26 91.068 103.88 90.552 102.8 89.52C101.744 88.488 101.216 87.048 101.216 85.2ZM124.328 79.8L110.18 105H105.284L119.396 79.8H124.328ZM106.904 82.392C105.584 82.392 104.924 83.328 104.924 85.2C104.924 87.096 105.584 88.044 106.904 88.044C107.552 88.044 108.056 87.816 108.416 87.36C108.776 86.88 108.956 86.16 108.956 85.2C108.956 83.328 108.272 82.392 106.904 82.392ZM117.02 99.564C117.02 97.716 117.548 96.288 118.604 95.28C119.684 94.248 121.064 93.732 122.744 93.732C124.424 93.732 125.78 94.248 126.812 95.28C127.868 96.288 128.396 97.716 128.396 99.564C128.396 101.412 127.868 102.852 126.812 103.884C125.78 104.916 124.424 105.432 122.744 105.432C121.04 105.432 119.66 104.916 118.604 103.884C117.548 102.852 117.02 101.412 117.02 99.564ZM122.708 96.756C121.34 96.756 120.656 97.692 120.656 99.564C120.656 101.46 121.34 102.408 122.708 102.408C124.052 102.408 124.724 101.46 124.724 99.564C124.724 97.692 124.052 96.756 122.708 96.756Z" fill="#292D32"/>
<circle cx="61.8507" cy="156.851" r="15.791" fill="#7B40F2" stroke="white" stroke-width="4.1194"/>
<defs>
<linearGradient id="paint0_linear_110_3561" x1="74.6415" y1="160.566" x2="122.377" y2="19.0945" gradientUnits="userSpaceOnUse">
<stop stop-color="#7B40F2"/>
<stop offset="1" stop-color="#7B40F2"/>
</linearGradient>
<linearGradient id="paint1_linear_110_3561" x1="74.6415" y1="160.566" x2="122.377" y2="19.0945" gradientUnits="userSpaceOnUse">
<stop stop-color="#7B40F2"/>
<stop offset="1" stop-color="#7B40F2"/>
</linearGradient>
</defs>
</svg>
