<svg width="317" height="236" viewBox="0 0 317 236" fill="none" xmlns="http://www.w3.org/2000/svg">
<g filter="url(#filter0_b_1209_11434)">
<path d="M0 0H297C308.046 0 317 8.95431 317 20V216C317 227.046 308.046 236 297 236H0V0Z" fill="url(#paint0_linear_1209_11434)"/>
<path d="M0.5 0.5H297C307.77 0.5 316.5 9.23045 316.5 20V216C316.5 226.77 307.77 235.5 297 235.5H0.5V0.5Z" stroke="url(#paint1_linear_1209_11434)"/>
</g>
<path d="M205 48.5833V187.417L198.333 195C189.083 205.5 181.5 202.667 181.5 188.667V128.667H155.75C144.083 128.667 140.833 121.5 148.583 112.75L205 48.5833Z" fill="white"/>
<path opacity="0.4" d="M261.417 123.25L205 187.417V48.5833L211.667 41C220.917 30.5 228.5 33.3333 228.5 47.3333V107.333H254.25C265.917 107.333 269.167 114.5 261.417 123.25Z" fill="white"/>
<defs>
<filter id="filter0_b_1209_11434" x="-76" y="-76" width="469" height="388" filterUnits="userSpaceOnUse" color-interpolation-filters="sRGB">
<feFlood flood-opacity="0" result="BackgroundImageFix"/>
<feGaussianBlur in="BackgroundImage" stdDeviation="38"/>
<feComposite in2="SourceAlpha" operator="in" result="effect1_backgroundBlur_1209_11434"/>
<feBlend mode="normal" in="SourceGraphic" in2="effect1_backgroundBlur_1209_11434" result="shape"/>
</filter>
<linearGradient id="paint0_linear_1209_11434" x1="0" y1="118" x2="318.904" y2="67.1881" gradientUnits="userSpaceOnUse">
<stop stop-color="white" stop-opacity="0.48"/>
<stop offset="1" stop-color="white" stop-opacity="0"/>
</linearGradient>
<linearGradient id="paint1_linear_1209_11434" x1="21.5" y1="247" x2="371" y2="-104" gradientUnits="userSpaceOnUse">
<stop stop-color="white"/>
<stop offset="1" stop-color="white" stop-opacity="0"/>
</linearGradient>
</defs>
</svg>
