<svg width="50" height="50" viewBox="0 0 50 50" fill="none" xmlns="http://www.w3.org/2000/svg">
<path opacity="0.4" d="M45.1247 21.7501L43.0831 30.4584C41.3331 37.9792 37.8747 41.0209 31.3747 40.3959C30.3331 40.3126 29.2081 40.1251 27.9997 39.8334L24.4997 39.0001C15.8122 36.9376 13.1247 32.6459 15.1664 23.9376L17.2081 15.2084C17.6247 13.4376 18.1247 11.8959 18.7497 10.6251C21.1872 5.58339 25.3331 4.22922 32.2914 5.87506L35.7706 6.68756C44.4997 8.72922 47.1664 13.0417 45.1247 21.7501Z" fill="#7B40F2"/>
<path d="M31.3742 40.3958C30.0826 41.2708 28.4576 42 26.4784 42.6458L23.1867 43.7292C14.9159 46.3958 10.5617 44.1667 7.87425 35.8958L5.20758 27.6667C2.54091 19.3958 4.74925 15.0208 13.0201 12.3542L16.3117 11.2708C17.1659 11 17.9784 10.7708 18.7492 10.625C18.1242 11.8958 17.6242 13.4375 17.2076 15.2083L15.1659 23.9375C13.1242 32.6458 15.8117 36.9375 24.4992 39L27.9992 39.8333C29.2076 40.125 30.3326 40.3125 31.3742 40.3958Z" fill="#7B40F2"/>
<path d="M36.4378 21.8959C36.3128 21.8959 36.1878 21.875 36.042 21.8542L25.9378 19.2917C25.1045 19.0834 24.6045 18.2292 24.8128 17.3959C25.0212 16.5625 25.8753 16.0625 26.7087 16.2709L36.8128 18.8334C37.6462 19.0417 38.1462 19.8959 37.9378 20.7292C37.7712 21.4167 37.1253 21.8959 36.4378 21.8959Z" fill="#7B40F2"/>
<path d="M30.3337 28.9375C30.2087 28.9375 30.0837 28.9167 29.9378 28.8959L23.8753 27.3542C23.042 27.1459 22.542 26.2917 22.7503 25.4584C22.9587 24.625 23.8128 24.125 24.6462 24.3334L30.7087 25.875C31.542 26.0834 32.042 26.9375 31.8337 27.7709C31.667 28.4792 31.042 28.9375 30.3337 28.9375Z" fill="#7B40F2"/>
</svg>
