<svg width="50" height="50" viewBox="0 0 50 50" fill="none" xmlns="http://www.w3.org/2000/svg">
<path opacity="0.4" d="M20.8118 37.4583C30.0051 37.4583 37.4577 30.0057 37.4577 20.8125C37.4577 11.6192 30.0051 4.16663 20.8118 4.16663C11.6186 4.16663 4.16602 11.6192 4.16602 20.8125C4.16602 30.0057 11.6186 37.4583 20.8118 37.4583Z" fill="#7B40F2"/>
<path d="M45.7715 33.3125C45.7715 40.1875 40.1882 45.7709 33.3132 45.7709C29.0632 45.7709 25.334 43.6459 23.084 40.4167C32.1673 39.3959 39.3965 32.1667 40.4173 23.0834C43.6465 25.3334 45.7715 29.0625 45.7715 33.3125Z" fill="#7B40F2"/>
<path d="M23.8535 20.2291L18.8535 18.4791C18.3535 18.3125 18.2493 18.2708 18.2493 17.5416C18.2493 17 18.6243 16.5625 19.1035 16.5625H22.2285C22.8952 16.5625 23.4368 17.1666 23.4368 17.9166C23.4368 18.7708 24.1452 19.4791 24.9993 19.4791C25.8535 19.4791 26.5618 18.7708 26.5618 17.9166C26.5618 15.5208 24.7077 13.5625 22.3952 13.4583V13.3541C22.3952 12.5 21.6868 11.7916 20.8327 11.7916C19.9785 11.7916 19.2702 12.4791 19.2702 13.3541V13.4583H19.0827C16.8952 13.4583 15.1035 15.2916 15.1035 17.5625C15.1035 19.5416 15.9785 20.8125 17.791 21.4375L22.8118 23.1875C23.3118 23.3541 23.416 23.3958 23.416 24.125C23.416 24.6666 23.041 25.1041 22.5618 25.1041H19.4368C18.7702 25.1041 18.2285 24.5 18.2285 23.75C18.2285 22.8958 17.5202 22.1875 16.666 22.1875C15.8118 22.1875 15.1035 22.8958 15.1035 23.75C15.1035 26.1458 16.9577 28.1041 19.2702 28.2083V28.3333C19.2702 29.1875 19.9785 29.8958 20.8327 29.8958C21.6868 29.8958 22.3952 29.1875 22.3952 28.3333V28.2291H22.5827C24.7702 28.2291 26.5618 26.3958 26.5618 24.125C26.5618 22.1458 25.666 20.875 23.8535 20.2291Z" fill="#7B40F2"/>
</svg>
