<svg width="50" height="50" viewBox="0 0 50 50" fill="none" xmlns="http://www.w3.org/2000/svg">
<path d="M38.1869 11.8125L13.7285 36.2708C12.8119 37.1875 11.2702 37.0625 10.5202 35.9791C7.93685 32.2083 6.41602 27.75 6.41602 23.1666V14.0208C6.41602 12.3125 7.70769 10.375 9.29103 9.72918L20.8952 4.97919C23.5202 3.89585 26.4369 3.89585 29.0619 4.97919L37.4785 8.41667C38.8744 8.97917 39.2285 10.7709 38.1869 11.8125Z" fill="#EAE0FD"/>
<path d="M40.1462 14.6666C41.5003 13.5208 43.5629 14.4999 43.5629 16.2708V23.1666C43.5629 33.3541 36.167 42.8958 26.0629 45.6874C25.3754 45.8749 24.6254 45.8749 23.917 45.6874C20.9587 44.8541 18.2087 43.4583 15.8545 41.625C14.8545 40.8541 14.7504 39.3958 15.6254 38.5C20.167 33.8541 33.4587 20.3125 40.1462 14.6666Z" fill="#7B40F2"/>
</svg>
