<svg width="19" height="23" viewBox="0 0 19 23" fill="none" xmlns="http://www.w3.org/2000/svg">
<path fill-rule="evenodd" clip-rule="evenodd" d="M13.7899 0.0360543C12.8928 0.171195 11.8123 0.692092 11.0832 1.34098C10.6131 1.7593 10.0784 2.5001 9.81535 3.09758C9.56749 3.66046 9.4921 4.01342 9.4753 4.68949L9.46271 5.19592L9.62857 5.21087C10.0348 5.24743 10.6948 5.14002 11.137 4.96537C12.5129 4.42203 13.7418 2.92161 14.0712 1.3826C14.1443 1.04152 14.1855 0.534397 14.1645 0.234938L14.148 0L14.074 0.00222296C14.0332 0.00343776 13.9054 0.0186804 13.7899 0.0360543ZM13.4556 5.44682C12.776 5.52002 12.2575 5.65409 11.1835 6.03423C10.8449 6.15406 10.4136 6.30153 10.2251 6.36193C9.64159 6.54887 9.451 6.52618 8.37867 6.14207C8.12544 6.05135 7.81708 5.94108 7.69343 5.89705C7.34695 5.7736 6.88581 5.64309 6.55858 5.57586C6.29549 5.52179 6.20935 5.51482 5.80032 5.51464C4.80085 5.5142 3.93707 5.7532 3.04634 6.27666C2.61568 6.52975 2.34156 6.73961 1.96566 7.10405C1.46654 7.58793 1.15008 8.01488 0.809369 8.66404C-0.223607 10.6323 -0.269634 13.3396 0.68175 16.1706C1.24166 17.8367 1.87943 19.0125 3.03153 20.5026C3.91376 21.6437 4.68282 22.2711 5.48086 22.5008C5.67126 22.5555 5.73271 22.5621 6.06062 22.5625C6.37864 22.5629 6.46452 22.5546 6.70637 22.4998C7.04746 22.4226 7.38365 22.316 7.83542 22.1418C8.54841 21.8668 9.08165 21.7314 9.64571 21.6824C10.3416 21.622 11.1811 21.7832 12.0358 22.1412C12.4487 22.3143 13.0954 22.4876 13.496 22.5328C14.5666 22.6533 15.5335 22.1404 16.5459 20.9149C17.6182 19.617 18.3515 18.3641 18.8851 16.9183C18.9519 16.7371 19.0036 16.5863 18.9998 16.5833C18.996 16.5803 18.8643 16.5146 18.707 16.4374C17.9106 16.0461 17.1685 15.4031 16.6797 14.6807C16.3807 14.2388 16.1186 13.6293 16.0015 13.1037C15.89 12.6034 15.8486 11.854 15.9049 11.3572C15.9669 10.8113 16.1345 10.2361 16.3636 9.78285C16.7664 8.98587 17.2943 8.43756 18.3526 7.71711C18.3964 7.68729 18.3903 7.67515 18.223 7.45866C18.0107 7.18398 17.5717 6.7519 17.3123 6.56239C16.5301 5.99095 15.7052 5.66715 14.6033 5.49898C14.318 5.45543 13.6552 5.42529 13.4556 5.44682Z" fill="#292D32"/>
</svg>
