<svg width="30" height="36" viewBox="0 0 30 36" fill="none" xmlns="http://www.w3.org/2000/svg">
<path fill-rule="evenodd" clip-rule="evenodd" d="M21.7736 0.0569278C20.3571 0.270308 18.6511 1.09278 17.4998 2.11733C16.7575 2.77785 15.9133 3.94753 15.4979 4.89091C15.1066 5.77968 14.9875 6.33698 14.961 7.40446L14.9411 8.20409L15.203 8.22769C15.8444 8.28541 16.8865 8.11582 17.5848 7.84005C19.7573 6.98215 21.6975 4.61308 22.2177 2.18306C22.333 1.6445 22.3981 0.843785 22.365 0.370954L22.339 0L22.222 0.00350994C22.1577 0.00542805 21.9559 0.0294953 21.7736 0.0569278ZM21.2457 8.60023C20.1727 8.71583 19.3539 8.92751 17.6582 9.52773C17.1235 9.71693 16.4426 9.94978 16.1449 10.0451C15.2236 10.3403 14.9226 10.3045 13.2295 9.698C12.8296 9.55476 12.3428 9.38065 12.1475 9.31113C11.6004 9.11621 10.8723 8.91014 10.3557 8.80399C9.94025 8.71862 9.80424 8.70761 9.1584 8.70732C7.58029 8.70664 6.21643 9.08399 4.81001 9.91052C4.13002 10.3101 3.6972 10.6415 3.10367 11.2169C2.31559 11.9809 1.81592 12.6551 1.27795 13.6801C-0.353064 16.7878 -0.425737 21.0625 1.07645 25.5325C1.96052 28.1632 2.96751 30.0197 4.78662 32.3725C6.17963 34.1743 7.39392 35.1649 8.65399 35.5275C8.95462 35.614 9.05165 35.6244 9.56941 35.625C10.0715 35.6256 10.2071 35.6125 10.589 35.526C11.1276 35.4042 11.6584 35.2358 12.3717 34.9607C13.4975 34.5264 14.3395 34.3128 15.2301 34.2354C16.3289 34.14 17.6544 34.3945 19.0038 34.9599C19.6559 35.233 20.677 35.5068 21.3095 35.578C22.9998 35.7684 24.5266 34.9585 26.1252 33.0235C27.8182 30.9742 28.976 28.996 29.8185 26.7131C29.9241 26.427 30.0056 26.189 29.9997 26.1842C29.9937 26.1794 29.7857 26.0758 29.5374 25.9538C28.2798 25.3359 27.1081 24.3207 26.3364 23.1801C25.8643 22.4823 25.4504 21.52 25.2655 20.69C25.0895 19.9 25.024 18.7168 25.1131 17.9325C25.2109 17.0705 25.4755 16.1622 25.8372 15.4466C26.4732 14.1882 27.3069 13.3225 28.9778 12.1849C29.0469 12.1378 29.0373 12.1187 28.7732 11.7768C28.438 11.3431 27.7448 10.6609 27.3352 10.3617C26.1002 9.4594 24.7977 8.94814 23.0578 8.68261C22.6073 8.61384 21.5608 8.56625 21.2457 8.60023Z" fill="white"/>
</svg>
