<svg width="42" height="42" viewBox="0 0 42 42" fill="none" xmlns="http://www.w3.org/2000/svg">
<path d="M35.875 17.8325H30.8175C26.67 17.8325 23.2925 14.455 23.2925 10.3075V5.25C23.2925 4.2875 22.505 3.5 21.5425 3.5H14.1225C8.7325 3.5 4.375 7 4.375 13.2475V28.7525C4.375 35 8.7325 38.5 14.1225 38.5H27.8775C33.2675 38.5 37.625 35 37.625 28.7525V19.5825C37.625 18.62 36.8375 17.8325 35.875 17.8325ZM20.1775 23.6775C19.915 23.94 19.5825 24.0625 19.25 24.0625C18.9175 24.0625 18.585 23.94 18.3225 23.6775L17.0625 22.4175V29.75C17.0625 30.4675 16.4675 31.0625 15.75 31.0625C15.0325 31.0625 14.4375 30.4675 14.4375 29.75V22.4175L13.1775 23.6775C12.67 24.185 11.83 24.185 11.3225 23.6775C10.815 23.17 10.815 22.33 11.3225 21.8225L14.8225 18.3225C14.945 18.2175 15.0675 18.13 15.2075 18.06C15.2425 18.0425 15.295 18.025 15.33 18.0075C15.435 17.9725 15.54 17.955 15.6625 17.9375C15.715 17.9375 15.75 17.9375 15.8025 17.9375C15.9425 17.9375 16.0825 17.9725 16.2225 18.025C16.24 18.025 16.24 18.025 16.2575 18.025C16.3975 18.0775 16.5375 18.1825 16.6425 18.2875C16.66 18.305 16.6775 18.305 16.6775 18.3225L20.1775 21.8225C20.685 22.33 20.685 23.17 20.1775 23.6775Z" fill="#7B40F2"/>
<path d="M30.5039 15.4175C32.1664 15.435 34.4764 15.435 36.4539 15.435C37.4514 15.435 37.9764 14.2625 37.2764 13.5625C34.7564 11.025 30.2414 6.45749 27.6514 3.86749C26.9339 3.14999 25.6914 3.63999 25.6914 4.63749V10.745C25.6914 13.3 27.8614 15.4175 30.5039 15.4175Z" fill="#7B40F2"/>
</svg>
