<svg width="432" height="490" viewBox="0 0 432 490" fill="none" xmlns="http://www.w3.org/2000/svg">
<rect width="169.88" height="227.328" rx="40" transform="matrix(0.866044 -0.499967 0.866044 0.499967 53 255.935)" fill="white" fill-opacity="0.1"/>
<g filter="url(#filter0_d_10_350)">
<rect width="152.683" height="204.315" rx="40" transform="matrix(0.866044 -0.499967 0.866044 0.499967 70.4141 257.388)" fill="white" fill-opacity="0.6" shape-rendering="crispEdges"/>
</g>
<g filter="url(#filter1_d_10_350)">
<rect width="152.683" height="204.315" rx="40" transform="matrix(0.866044 -0.499967 0.866044 0.499967 70.4141 257.388)" fill="white" fill-opacity="0.6" shape-rendering="crispEdges"/>
</g>
<g filter="url(#filter2_f_10_350)">
<rect width="155.774" height="208.451" rx="27" transform="matrix(0.866044 -0.499967 0.866044 0.499967 67.2812 257.127)" fill="white"/>
</g>
<path d="M168.129 238.555L157.152 232.244C155.99 231.6 155.086 230.183 154.698 227.993L165.676 234.305C166.063 236.494 166.967 237.911 168.129 238.555Z" fill="#DAD9E8"/>
<path d="M168.126 238.555L157.149 232.244C155.987 231.6 155.083 230.183 154.695 227.993L165.673 234.305C166.06 236.494 166.964 237.911 168.126 238.555Z" fill="#DAD9E8"/>
<path d="M165.676 234.433L154.828 227.993L165.676 234.433C165.676 234.305 165.676 234.433 165.676 234.433Z" fill="#DAD9E8"/>
<path d="M177.559 124.559L188.536 130.87C185.307 129.067 180.916 129.196 175.88 132.159L164.902 125.847C169.939 122.884 174.459 122.627 177.559 124.559Z" fill="#DAD9E8"/>
<path d="M176.015 132.159L165.037 125.847C169.945 123.013 174.465 122.756 177.693 124.559L188.671 130.871C185.313 129.067 180.922 129.196 176.015 132.159Z" fill="#DAD9E8"/>
<path d="M165.688 234.305L154.711 227.993L144.25 161.27L155.227 167.71L165.688 234.305Z" fill="#DAD9E8"/>
<path d="M172.652 133.962L161.675 127.65L165.033 125.718L176.01 132.158L172.652 133.962Z" fill="#EBEBF1"/>
<path d="M155.226 167.71L144.249 161.398C142.441 150.063 150.706 134.091 161.684 127.779L172.661 134.091C161.684 140.274 153.418 156.375 155.226 167.71Z" fill="#EBEBF1"/>
<path d="M155.219 167.71L144.241 161.398C143.725 157.92 144.112 154.056 145.146 150.192L156.123 156.504C155.09 160.368 154.702 164.232 155.219 167.71Z" fill="#EBEBF1"/>
<path d="M156.124 156.504L145.146 150.192C146.438 145.812 148.504 141.304 151.345 137.44L162.323 143.751C159.611 147.616 157.415 151.995 156.124 156.504Z" fill="#EBEBF1"/>
<path d="M162.321 143.751L151.344 137.44C153.41 134.477 155.993 131.772 158.705 129.711L169.682 136.023C166.97 138.084 164.517 140.789 162.321 143.751Z" fill="#EBEBF1"/>
<path d="M169.681 136.023L158.703 129.711C159.607 128.938 160.64 128.294 161.673 127.779L172.651 134.091C171.618 134.606 170.585 135.25 169.681 136.023Z" fill="#EBEBF1"/>
<path d="M176.003 132.159C186.981 125.847 195.246 132.287 193.567 145.684L183.494 224.258C182.719 230.44 178.715 235.593 174.712 237.911C170.708 240.23 166.705 239.715 165.801 234.434L155.211 167.71C153.403 156.375 161.668 140.402 172.646 134.091L176.003 132.159Z" fill="#C4C3EC"/>
<path d="M188.159 132.674L195.779 137.054C192.55 135.121 188.03 135.379 183.123 138.342L175.503 133.962C180.41 131 184.801 130.742 188.159 132.674Z" fill="#7B40F2"/>
<path d="M182.989 138.342L175.369 133.962C180.277 131.128 184.797 130.871 188.025 132.674L195.645 137.054C192.546 135.25 188.025 135.508 182.989 138.342Z" fill="#7B40F2"/>
<path d="M184.805 145.813C191.52 141.948 197.074 145.04 197.074 152.768C197.074 160.497 191.649 169.9 184.934 173.764C178.218 177.629 172.665 174.537 172.665 166.809C172.665 159.08 178.089 149.677 184.805 145.813Z" fill="#7B40F2"/>
<path d="M170.453 180.462L162.834 176.083C159.605 174.279 157.668 170.286 157.668 164.619C157.668 153.283 165.546 139.63 175.49 133.962L183.11 138.341C173.295 144.009 165.288 157.792 165.288 168.998C165.288 174.666 167.225 178.659 170.453 180.462Z" fill="#7B40F2"/>
<path d="M170.457 180.462L162.838 176.083C159.996 174.408 158.059 171.188 157.672 166.551L165.291 170.93C165.679 175.567 167.616 178.788 170.457 180.462Z" fill="#7B40F2"/>
<path d="M165.288 170.802L157.668 166.422C157.668 165.778 157.539 165.263 157.539 164.619C157.539 154.829 163.48 143.365 171.358 136.667L178.977 141.047C170.97 147.745 165.159 159.209 165.159 168.998C165.288 169.642 165.288 170.286 165.288 170.802Z" fill="#7B40F2"/>
<path d="M179.112 141.047L171.492 136.667C172.784 135.637 174.075 134.735 175.496 133.833L183.115 138.213C181.695 139.114 180.403 140.016 179.112 141.047Z" fill="#7B40F2"/>
<path d="M184.804 145.813L182.996 138.342C192.811 132.674 200.818 137.182 200.947 148.518C200.947 159.853 193.069 173.507 183.125 179.174C173.31 184.842 165.303 180.334 165.174 168.998C165.174 157.663 173.052 144.009 182.996 138.342L184.804 145.813C178.088 149.677 172.535 159.08 172.664 166.938C172.664 174.666 178.218 177.758 184.933 173.893C191.649 170.029 197.202 160.626 197.073 152.897C197.073 145.04 191.52 141.82 184.804 145.813Z" fill="#7B40F2"/>
<path d="M184.806 145.813L182.998 138.342C192.813 132.674 200.82 137.182 200.949 148.518C200.949 159.853 193.071 173.507 183.127 179.174C173.312 184.842 165.305 180.334 165.176 168.998C165.176 157.663 173.054 144.009 182.998 138.342L184.806 145.813C178.09 149.677 172.537 159.08 172.666 166.938C172.666 174.666 178.22 177.758 184.935 173.893C191.651 170.029 197.204 160.626 197.075 152.897C197.075 145.04 191.522 141.82 184.806 145.813Z" fill="#7B40F2"/>
<path d="M181.963 74.9673L162.204 10.5625L181.963 74.9673Z" fill="#1393F2"/>
<path d="M163.981 9.93543L160.276 11.0669L180.053 75.4836L183.758 74.3522L163.981 9.93543Z" fill="#171C29"/>
<path d="M205.454 277.327C187.244 266.121 183.241 251.179 181.433 244.738C182.853 250.921 187.632 256.975 195.897 261.999C216.431 274.364 250.526 274.751 271.964 262.772C281.133 257.619 286.557 251.05 288.107 244.352C286.686 249.633 284.62 257.748 276.613 267.022C273.514 270.5 266.798 277.069 256.079 281.449C239.807 287.761 219.918 286.215 205.454 277.327Z" fill="#919DD6"/>
<path d="M272.476 130.613C292.494 142.721 291.848 161.914 270.926 173.507C250.005 185.099 216.814 184.842 196.667 172.734C176.65 160.626 177.296 141.433 198.217 129.84C219.139 118.119 252.329 118.505 272.476 130.613Z" fill="#E4E3EE"/>
<path d="M181.445 244.48L165.302 173.893C167.239 182.137 173.438 190.123 184.157 196.434C210.89 212.536 255.187 212.922 283.083 197.465C295.093 190.767 302.067 182.265 304.004 173.506L288.249 244.094C286.699 250.921 281.404 257.49 272.105 262.514C250.667 274.493 216.573 274.107 196.038 261.741C187.773 256.975 182.995 250.792 181.445 244.48Z" fill="#B7B6E3"/>
<path d="M189.707 128.681C217.086 113.868 255.7 114.383 281.659 129.711C279.334 128.294 276.105 128.423 272.489 130.484C252.472 118.376 219.152 118.118 198.23 129.711C177.309 141.304 176.663 160.497 196.681 172.605C216.698 184.713 250.018 184.971 270.939 173.378C291.861 161.785 292.507 142.592 272.489 130.484C276.105 128.423 279.334 128.294 281.659 129.711C287.083 133.189 295.348 138.47 301.03 149.677C306.325 160.11 304.776 169.385 304.001 173.378C301.934 182.394 294.961 190.896 282.95 197.594C255.055 213.051 210.758 212.665 184.024 196.563C173.305 190.123 167.106 182.137 165.169 174.022C164.523 170.415 163.878 167.066 164.523 161.785C165.298 155.087 168.01 150.063 168.139 149.934C170.206 146.199 175.501 136.409 189.707 128.681Z" fill="#DAD9E8"/>
<path d="M263.704 43.5378C279.072 52.8121 278.556 67.4963 262.542 76.3842C246.527 85.2721 220.957 85.0145 205.588 75.869C190.22 66.5947 190.736 51.9104 206.751 43.0225C222.894 34.0059 248.336 34.2635 263.704 43.5378Z" fill="#EBEBF1"/>
<path d="M185.306 153.67C160.51 138.341 155.085 118.118 154.827 103.82C154.827 115.284 162.188 126.749 177.04 135.636C207.648 153.927 258.144 154.443 290.043 136.796C306.444 127.65 314.71 115.542 314.581 103.305C314.322 110.776 313.935 114.64 310.835 123.013C308.511 129.582 304.249 135.121 302.053 138.084C301.02 139.501 291.205 151.995 272.221 159.337C239.418 172.218 204.936 165.778 185.306 153.67Z" fill="#B7B6E3"/>
<path d="M187.504 40.575C201.968 32.7176 218.37 28.8533 235.934 28.9821C254.014 29.2397 270.286 33.4905 284.234 41.7343C279.068 38.6428 271.707 38.9005 263.7 43.4088C248.332 34.1345 222.761 33.8769 206.747 42.8936C190.733 51.7814 190.216 66.5945 205.584 75.74C220.953 85.0143 246.524 85.2719 262.538 76.2552C278.552 67.3674 279.068 52.5543 263.7 43.4088C271.707 38.9005 279.068 38.6428 284.234 41.7343C291.596 46.5002 313.938 60.7981 314.713 91.5836C314.713 103.692 306.576 115.929 290.175 125.074C258.276 142.85 207.78 142.335 177.172 123.915C162.191 115.027 154.83 103.563 154.83 92.0988C154.959 87.5905 155.218 82.5669 157.155 76.384C159.479 69.0419 161.417 65.9505 164.774 60.6693C167.357 56.6762 175.493 47.1443 187.504 40.575Z" fill="#E4E3EE"/>
<path d="M250.524 137.182C224.695 140.273 196.8 135.765 177.169 124.043C162.318 115.156 154.956 103.692 154.827 92.3563C154.827 84.8853 157.798 78.0584 162.963 72.6484C163.092 82.8244 169.679 93.1292 182.981 100.987C200.545 111.549 225.599 115.542 248.845 112.837C249.878 121.21 250.395 129.711 250.524 137.182Z" fill="#292D32"/>
<path d="M154.827 103.82V92.0987C154.827 103.563 162.188 115.027 177.04 123.915C207.648 142.206 258.144 142.721 290.043 125.074C306.444 115.929 314.71 103.82 314.581 91.5835V103.305C314.581 115.413 306.444 127.65 290.043 136.796C258.144 154.571 207.648 154.056 177.04 135.636C162.318 126.749 154.956 115.284 154.827 103.82Z" fill="#DAD9E8"/>
<path d="M167.867 104.207C166.317 108.587 163.605 108.973 161.797 104.851C158.698 98.0242 161.797 89.9092 165.93 91.0684C166.705 91.3261 167.092 91.7125 167.48 92.0989C169.933 95.8344 168.513 102.275 167.867 104.207Z" fill="#7B40F2"/>
<path d="M213.063 124.301C211.901 130.999 203.507 132.03 199.245 126.105C194.854 119.922 199.632 112.837 205.831 113.61C206.09 113.61 206.348 113.739 206.606 113.739C212.159 115.285 213.709 120.823 213.063 124.301Z" fill="#7B40F2"/>
<path d="M287.733 95.7056C287.733 91.7125 285.021 90.1668 281.534 92.0989C278.176 94.031 275.335 98.797 275.335 102.79C275.335 106.783 278.047 108.329 281.534 106.397C285.021 104.336 287.733 99.5699 287.733 95.7056Z" fill="#7B40F2"/>
<path d="M282.447 99.3123L327.519 65.5642L282.447 99.3123Z" fill="#1393F2"/>
<path d="M282.443 101.244C281.797 101.244 281.28 100.987 280.893 100.472C280.247 99.5699 280.376 98.4107 281.28 97.7666L326.352 64.0185C327.256 63.3744 328.419 63.5033 329.064 64.4049C329.71 65.3066 329.581 66.4659 328.677 67.1099L283.605 100.858C283.217 101.116 282.83 101.244 282.443 101.244Z" fill="#171C29"/>
<path d="M339 63.1167C339 57.3202 334.35 52.6831 328.539 52.6831C322.727 52.6831 318.078 57.3202 318.078 63.1167C318.078 68.9131 322.727 73.5503 328.539 73.5503C334.35 73.5503 339 68.9131 339 63.1167Z" fill="#7B40F2"/>
<path d="M171.634 10.4336C171.634 4.63715 166.984 0 161.173 0C155.361 0 150.712 4.63715 150.712 10.4336C150.712 16.23 155.361 20.8672 161.173 20.8672C166.984 20.8672 171.634 16.23 171.634 10.4336Z" fill="#7B40F2"/>
<path d="M297.026 170.286L304.646 174.666C301.417 172.734 296.897 172.991 291.99 175.954L284.37 171.574C289.278 168.612 293.798 168.354 297.026 170.286Z" fill="#7B40F2"/>
<path d="M291.988 175.825L284.368 171.446C289.276 168.612 293.796 168.354 297.024 170.157L304.644 174.537C301.415 172.734 297.024 172.991 291.988 175.825Z" fill="#7B40F2"/>
<path d="M293.807 183.296C300.523 179.432 306.076 182.523 306.076 190.252C306.076 197.98 300.652 207.383 293.936 211.248C287.221 215.112 281.667 212.02 281.667 204.292C281.538 196.692 287.091 187.16 293.807 183.296Z" fill="#7B40F2"/>
<path d="M279.482 217.946L271.862 213.566C268.633 211.763 266.696 207.77 266.696 202.102C266.696 190.767 274.574 177.113 284.518 171.446L292.138 175.825C282.323 181.493 274.316 195.275 274.316 206.482C274.316 212.149 276.253 216.142 279.482 217.946Z" fill="#7B40F2"/>
<path d="M279.483 217.946L271.863 213.566C269.022 211.892 267.085 208.672 266.697 204.034L274.317 208.414C274.704 213.051 276.642 216.4 279.483 217.946Z" fill="#7B40F2"/>
<path d="M274.313 208.414L266.694 204.034C266.694 203.39 266.564 202.875 266.564 202.231C266.564 192.441 272.505 180.977 280.383 174.279L288.003 178.659C279.996 185.357 274.184 196.821 274.184 206.611C274.184 207.255 274.313 207.899 274.313 208.414Z" fill="#7B40F2"/>
<path d="M288.137 178.659L280.518 174.279C281.809 173.249 283.101 172.347 284.521 171.446L292.141 175.825C290.72 176.727 289.299 177.628 288.137 178.659Z" fill="#7B40F2"/>
<path d="M293.804 183.296L291.996 175.825C301.811 170.158 309.818 174.666 309.947 186.001C309.947 197.336 302.069 210.99 292.125 216.658C282.31 222.325 274.303 217.817 274.174 206.482C274.174 195.147 282.052 181.493 291.996 175.825L293.804 183.296C287.088 187.16 281.535 196.564 281.664 204.421C281.664 212.149 287.218 215.241 293.933 211.377C300.649 207.512 306.202 198.109 306.073 190.381C306.073 182.523 300.52 179.432 293.804 183.296Z" fill="#7B40F2"/>
<path d="M293.805 183.296L291.997 175.825C301.812 170.158 309.819 174.666 309.948 186.001C309.948 197.336 302.07 210.99 292.126 216.658C282.311 222.325 274.304 217.817 274.175 206.482C274.175 195.147 282.053 181.493 291.997 175.825L293.805 183.296C287.089 187.16 281.536 196.564 281.665 204.421C281.665 212.149 287.219 215.241 293.934 211.377C300.65 207.512 306.203 198.109 306.074 190.381C306.074 182.523 300.521 179.432 293.805 183.296Z" fill="#7B40F2"/>
<path d="M297.16 287.761L286.182 281.449C285.02 280.805 284.116 279.388 283.729 277.198L294.706 283.51C295.093 285.7 295.997 286.988 297.16 287.761Z" fill="#DAD9E8"/>
<path d="M297.158 287.761L286.18 281.449C285.018 280.805 284.114 279.388 283.727 277.198L294.704 283.51C295.091 285.7 295.995 286.988 297.158 287.761Z" fill="#DAD9E8"/>
<path d="M294.704 283.51L283.727 277.198L294.704 283.51Z" fill="#DAD9E8"/>
<path d="M306.589 173.635L317.566 179.947C314.338 178.144 309.947 178.272 304.91 181.235L293.933 174.923C298.969 171.961 303.36 171.832 306.589 173.635Z" fill="#DAD9E8"/>
<path d="M304.913 181.235L293.936 174.923C298.843 172.089 303.363 171.832 306.592 173.635L317.569 179.947C314.341 178.144 309.95 178.401 304.913 181.235Z" fill="#DAD9E8"/>
<path d="M294.705 283.51L283.727 277.198L273.267 210.475L284.115 216.787L294.705 283.51Z" fill="#DAD9E8"/>
<path d="M301.539 183.167L290.69 176.855L293.919 174.923L304.896 181.235L301.539 183.167Z" fill="#EBEBF1"/>
<path d="M284.11 216.786L273.133 210.475C271.325 199.14 279.59 183.167 290.567 176.855L301.545 183.167C290.697 189.479 282.431 205.451 284.11 216.786Z" fill="#EBEBF1"/>
<path d="M284.119 216.786L273.142 210.475C272.625 206.997 273.013 203.133 274.046 199.268L285.023 205.58C283.99 209.444 283.603 213.309 284.119 216.786Z" fill="#EBEBF1"/>
<path d="M285.157 205.58L274.18 199.268C275.471 194.889 277.537 190.38 280.379 186.516L291.356 192.828C288.515 196.692 286.449 201.2 285.157 205.58Z" fill="#EBEBF1"/>
<path d="M291.354 192.828L280.377 186.516C282.443 183.554 285.026 180.849 287.738 178.788L298.716 185.099C296.004 187.289 293.421 189.865 291.354 192.828Z" fill="#EBEBF1"/>
<path d="M298.714 185.099L287.736 178.788C288.64 178.015 289.674 177.371 290.707 176.855L301.684 183.167C300.651 183.682 299.618 184.455 298.714 185.099Z" fill="#EBEBF1"/>
<path d="M304.901 181.235C315.878 174.923 324.144 181.364 322.465 194.76L312.391 273.334C311.616 279.517 307.613 284.669 303.609 286.988C299.606 289.306 295.602 288.791 294.698 283.51L284.108 216.787C282.3 205.451 290.566 189.479 301.543 183.167L304.901 181.235Z" fill="#C4C3EC"/>
<defs>
<filter id="filter0_d_10_350" x="10.707" y="174.767" width="428.59" height="315.057" filterUnits="userSpaceOnUse" color-interpolation-filters="sRGB">
<feFlood flood-opacity="0" result="BackgroundImageFix"/>
<feColorMatrix in="SourceAlpha" type="matrix" values="0 0 0 0 0 0 0 0 0 0 0 0 0 0 0 0 0 0 127 0" result="hardAlpha"/>
<feOffset dy="62"/>
<feGaussianBlur stdDeviation="40"/>
<feComposite in2="hardAlpha" operator="out"/>
<feColorMatrix type="matrix" values="0 0 0 0 0.482353 0 0 0 0 0.25098 0 0 0 0 0.94902 0 0 0 0.09 0"/>
<feBlend mode="normal" in2="BackgroundImageFix" result="effect1_dropShadow_10_350"/>
<feBlend mode="normal" in="SourceGraphic" in2="effect1_dropShadow_10_350" result="shape"/>
</filter>
<filter id="filter1_d_10_350" x="10.707" y="174.767" width="428.59" height="315.057" filterUnits="userSpaceOnUse" color-interpolation-filters="sRGB">
<feFlood flood-opacity="0" result="BackgroundImageFix"/>
<feColorMatrix in="SourceAlpha" type="matrix" values="0 0 0 0 0 0 0 0 0 0 0 0 0 0 0 0 0 0 127 0" result="hardAlpha"/>
<feOffset dy="62"/>
<feGaussianBlur stdDeviation="40"/>
<feComposite in2="hardAlpha" operator="out"/>
<feColorMatrix type="matrix" values="0 0 0 0 0.482353 0 0 0 0 0.25098 0 0 0 0 0.94902 0 0 0 0.09 0"/>
<feBlend mode="normal" in2="BackgroundImageFix" result="effect1_dropShadow_10_350"/>
<feBlend mode="normal" in="SourceGraphic" in2="effect1_dropShadow_10_350" result="shape"/>
</filter>
<filter id="filter2_f_10_350" x="0.978516" y="107.153" width="448.039" height="326.285" filterUnits="userSpaceOnUse" color-interpolation-filters="sRGB">
<feFlood flood-opacity="0" result="BackgroundImageFix"/>
<feBlend mode="normal" in="SourceGraphic" in2="BackgroundImageFix" result="shape"/>
<feGaussianBlur stdDeviation="40" result="effect1_foregroundBlur_10_350"/>
</filter>
</defs>
</svg>
