<svg width="30" height="30" viewBox="0 0 30 30" fill="none" xmlns="http://www.w3.org/2000/svg">
<path d="M7.65181 8.1076L7.66154 8.10676L7.67123 8.10555C7.94095 8.07184 8.22858 8.05981 8.53921 8.05981H16.4752C18.3755 8.05981 19.711 8.53601 20.5748 9.39982C21.4386 10.2636 21.9148 11.5991 21.9148 13.4994V18.4594C21.9148 18.77 21.9028 19.0577 21.8691 19.3274L21.8679 19.3372L21.867 19.347C21.7321 20.9303 21.2067 22.0434 20.3522 22.7685C19.491 23.4993 18.2218 23.899 16.4752 23.899H15.9792C15.5118 23.899 15.066 24.1219 14.7856 24.4958L13.2976 26.4798L13.2969 26.4807C13.0477 26.8147 12.7568 26.9401 12.5072 26.9401C12.2577 26.9401 11.9668 26.8147 11.7175 26.4807L11.7168 26.4798L10.2288 24.4958L10.2288 24.4958L10.226 24.4921C10.087 24.3103 9.88931 24.1681 9.69938 24.0721C9.50977 23.9763 9.27341 23.899 9.03521 23.899H8.53921C6.56962 23.899 5.25524 23.6464 4.41494 22.9126C3.59143 22.1935 3.09961 20.8964 3.09961 18.4594V13.4994C3.09961 11.7536 3.50207 10.4843 4.2345 9.62277C4.96146 8.76768 6.07495 8.24242 7.65181 8.1076ZM6.43961 16.2398C6.43961 17.1947 7.20581 17.9798 8.17961 17.9798C9.13775 17.9798 9.91961 17.198 9.91961 16.2398C9.91961 15.2817 9.13775 14.4998 8.17961 14.4998C7.22147 14.4998 6.43961 15.2817 6.43961 16.2398ZM10.7672 16.2398C10.7672 17.1947 11.5334 17.9798 12.5072 17.9798C13.481 17.9798 14.2472 17.1947 14.2472 16.2398C14.2472 15.2817 13.4654 14.4998 12.5072 14.4998C11.5491 14.4998 10.7672 15.2817 10.7672 16.2398ZM15.1072 16.2398C15.1072 17.1947 15.8734 17.9798 16.8472 17.9798C17.8054 17.9798 18.5872 17.198 18.5872 16.2398C18.5872 15.2817 17.8054 14.4998 16.8472 14.4998C15.8891 14.4998 15.1072 15.2817 15.1072 16.2398Z" fill="white" stroke="white"/>
<path d="M27.3736 8.53945V13.4995C27.3736 15.9795 26.6048 17.6659 25.0672 18.5959C24.6952 18.8191 24.2611 18.5215 24.2611 18.0875L24.2736 13.4995C24.2736 8.53945 21.434 5.69985 16.474 5.69985L8.92235 5.71225C8.48835 5.71225 8.19075 5.27825 8.41395 4.90625C9.34395 3.36865 11.0304 2.59985 13.498 2.59985H21.434C25.3896 2.59985 27.3736 4.58385 27.3736 8.53945Z" fill="white"/>
</svg>
