<svg width="20" height="19" viewBox="0 0 20 19" fill="none" xmlns="http://www.w3.org/2000/svg">
<g clip-path="url(#clip0_452_6058)">
<path d="M6.66602 5.54147L9.99935 2.3748L13.3327 5.54147" stroke="#ADB5C2" stroke-width="1.66667" stroke-linecap="round" stroke-linejoin="round"/>
<path d="M10 9.49966L10 2.37466" stroke="#ADB5C2" stroke-width="1.66667" stroke-linecap="round" stroke-linejoin="round"/>
<path d="M17.4003 4.67864C18.1248 5.16264 18.6681 5.85336 18.9514 6.65057C19.2347 7.44778 19.2431 8.31 18.9756 9.11212C18.7081 9.91423 18.1785 10.6145 17.4637 11.1113C16.7489 11.6081 15.886 11.8756 15.0003 11.8749L13.9503 11.8749C13.6997 12.8028 13.2307 13.6647 12.5787 14.3955C11.9268 15.1263 11.1088 15.7071 10.1863 16.0942C9.26387 16.4812 8.26101 16.6645 7.25325 16.63C6.24548 16.5956 5.25907 16.3444 4.36827 15.8954C3.47747 15.4464 2.7055 14.8113 2.11047 14.0379C1.51544 13.2644 1.11285 12.3728 0.933028 11.4302C0.753203 10.4875 0.800819 9.51842 1.07229 8.59579C1.34377 7.67316 1.83203 6.82106 2.50031 6.10364" stroke="#ADB5C2" stroke-width="1.66667" stroke-linecap="round" stroke-linejoin="round"/>
</g>
<defs>
<clipPath id="clip0_452_6058">
<rect width="20" height="19" fill="white" transform="matrix(1 8.74228e-08 8.74228e-08 -1 0 19)"/>
</clipPath>
</defs>
</svg>
