<svg width="42" height="42" viewBox="0 0 42 42" fill="none" xmlns="http://www.w3.org/2000/svg">
<path d="M36.6975 1.75H31.5525C29.33 1.75 28 3.08 28 5.3025V10.4475C28 12.67 29.33 14 31.5525 14H36.6975C38.92 14 40.25 12.67 40.25 10.4475V5.3025C40.25 3.08 38.92 1.75 36.6975 1.75ZM37.0825 7.5425C36.8725 7.7525 36.5925 7.8575 36.3125 7.8575C36.0325 7.8575 35.7525 7.7525 35.5425 7.5425L35.2275 7.2275V11.1475C35.2275 11.76 34.7375 12.25 34.125 12.25C33.5125 12.25 33.0225 11.76 33.0225 11.1475V7.2275L32.7075 7.5425C32.2875 7.9625 31.5875 7.9625 31.1675 7.5425C30.7475 7.1225 30.7475 6.4225 31.1675 6.0025L33.355 3.815C33.4425 3.7275 33.565 3.6575 33.6875 3.605C33.7225 3.5875 33.7575 3.5875 33.7925 3.57C33.88 3.535 33.9675 3.5175 34.0725 3.5175C34.1075 3.5175 34.1425 3.5175 34.1775 3.5175C34.3 3.5175 34.405 3.535 34.5275 3.5875C34.545 3.5875 34.545 3.5875 34.5625 3.5875C34.685 3.64 34.79 3.71 34.8775 3.7975C34.895 3.815 34.895 3.815 34.9125 3.815L37.1 6.0025C37.52 6.4225 37.52 7.1225 37.0825 7.5425Z" fill="#7B40F2"/>
<path d="M15.7509 18.165C18.0512 18.165 19.9159 16.3003 19.9159 14C19.9159 11.6997 18.0512 9.83501 15.7509 9.83501C13.4507 9.83501 11.5859 11.6997 11.5859 14C11.5859 16.3003 13.4507 18.165 15.7509 18.165Z" fill="#7B40F2"/>
<path d="M36.6975 14H35.875V22.0675L35.6475 21.875C34.2825 20.7025 32.0775 20.7025 30.7125 21.875L23.4325 28.1225C22.0675 29.295 19.8625 29.295 18.4975 28.1225L17.9025 27.6325C16.66 26.5475 14.6825 26.4425 13.2825 27.3875L6.7375 31.78C6.3525 30.8 6.125 29.6625 6.125 28.3325V13.6675C6.125 8.7325 8.7325 6.125 13.6675 6.125H28V5.3025C28 4.6025 28.1225 4.0075 28.4025 3.5H13.6675C7.2975 3.5 3.5 7.2975 3.5 13.6675V28.3325C3.5 30.24 3.8325 31.9025 4.48 33.3025C5.985 36.6275 9.205 38.5 13.6675 38.5H28.3325C34.7025 38.5 38.5 34.7025 38.5 28.3325V13.5975C37.9925 13.8775 37.3975 14 36.6975 14Z" fill="#7B40F2"/>
</svg>
