<svg width="20" height="19" viewBox="0 0 20 19" fill="none" xmlns="http://www.w3.org/2000/svg">
<g clip-path="url(#clip0_452_6049)">
<path d="M6.66602 13.4585L9.99935 16.6252L13.3327 13.4585" stroke="#ADB5C2" stroke-width="1.66667" stroke-linecap="round" stroke-linejoin="round"/>
<path d="M10 9.50035V16.6253" stroke="#ADB5C2" stroke-width="1.66667" stroke-linecap="round" stroke-linejoin="round"/>
<path d="M17.4003 14.3214C18.1248 13.8374 18.6681 13.1467 18.9514 12.3494C19.2347 11.5522 19.2431 10.69 18.9756 9.88789C18.7081 9.08578 18.1785 8.38552 17.4637 7.88873C16.7489 7.39193 15.886 7.12446 15.0003 7.12512H13.9503C13.6997 6.19718 13.2307 5.33535 12.5787 4.60451C11.9268 3.87367 11.1088 3.29286 10.1863 2.90581C9.26387 2.51876 8.26101 2.33555 7.25325 2.36998C6.24548 2.40441 5.25907 2.65558 4.36827 3.10458C3.47747 3.55358 2.7055 4.1887 2.11047 4.96215C1.51544 5.73559 1.11285 6.62719 0.933028 7.56983C0.753202 8.51247 0.800819 9.48159 1.07229 10.4042C1.34377 11.3268 1.83203 12.1789 2.50031 12.8964" stroke="#ADB5C2" stroke-width="1.66667" stroke-linecap="round" stroke-linejoin="round"/>
</g>
<defs>
<clipPath id="clip0_452_6049">
<rect width="20" height="19" fill="white"/>
</clipPath>
</defs>
</svg>
