<svg width="37" height="31" viewBox="0 0 37 31" fill="none" xmlns="http://www.w3.org/2000/svg">
<path d="M0.318787 6.46329C0.318787 2.97664 3.18299 0.150146 6.71616 0.150146H29.6714C33.2046 0.150146 36.0688 2.97664 36.0688 6.46329V18.3468C36.0688 21.8335 33.2046 24.66 29.6714 24.66H22.1199L16.1241 30.0501V25.0314L20.665 20.9464H29.6714C31.1263 20.9464 32.3056 19.7825 32.3056 18.3468V6.46329C32.3056 5.02761 31.1263 3.86376 29.6714 3.86376H6.71616C5.26132 3.86376 4.08195 5.02761 4.08195 6.46329V18.3468C4.08195 19.7825 5.26132 20.9464 6.71616 20.9464H16.1241V24.66H6.71616C3.18299 24.66 0.318787 21.8335 0.318787 18.3468V6.46329Z" fill="white"/>
</svg>
