<svg width="20" height="20" viewBox="0 0 20 20" fill="none" xmlns="http://www.w3.org/2000/svg">
<path d="M9.97396 1.6665C5.37396 1.6665 1.64062 5.39984 1.64062 9.99984C1.64062 14.5998 5.37396 18.3332 9.97396 18.3332C14.574 18.3332 18.3073 14.5998 18.3073 9.99984C18.3073 5.39984 14.5823 1.6665 9.97396 1.6665ZM12.474 11.8582L10.0573 13.2498C9.75729 13.4248 9.42396 13.5082 9.09896 13.5082C8.76562 13.5082 8.44063 13.4248 8.14062 13.2498C7.54063 12.8998 7.18229 12.2832 7.18229 11.5832V8.7915C7.18229 8.09984 7.54063 7.47484 8.14062 7.12484C8.74062 6.77484 9.45729 6.77484 10.0656 7.12484L12.4823 8.5165C13.0823 8.8665 13.4406 9.48317 13.4406 10.1832C13.4406 10.8832 13.0823 11.5082 12.474 11.8582Z" fill="#7B40F2"/>
</svg>
