<svg width="20" height="20" viewBox="0 0 20 20" fill="none" xmlns="http://www.w3.org/2000/svg">
<path d="M17.5 4.98334C14.725 4.70834 11.9333 4.56667 9.15 4.56667C7.5 4.56667 5.85 4.65 4.2 4.81667L2.5 4.98334" stroke="#ADB5C2" stroke-width="1.5" stroke-linecap="round" stroke-linejoin="round"/>
<path d="M7.08398 4.14167L7.26732 3.05C7.40065 2.25833 7.50065 1.66667 8.90898 1.66667H11.0923C12.5007 1.66667 12.609 2.29167 12.734 3.05833L12.9173 4.14167" stroke="#ADB5C2" stroke-width="1.5" stroke-linecap="round" stroke-linejoin="round"/>
<path d="M15.7077 7.61665L15.166 16.0083C15.0743 17.3166 14.9993 18.3333 12.6743 18.3333H7.32435C4.99935 18.3333 4.92435 17.3166 4.83268 16.0083L4.29102 7.61665" stroke="#ADB5C2" stroke-width="1.5" stroke-linecap="round" stroke-linejoin="round"/>
<path d="M8.60742 13.75H11.3824" stroke="#ADB5C2" stroke-width="1.5" stroke-linecap="round" stroke-linejoin="round"/>
<path d="M7.91602 10.4167H12.0827" stroke="#ADB5C2" stroke-width="1.5" stroke-linecap="round" stroke-linejoin="round"/>
</svg>
