<svg width="42" height="42" viewBox="0 0 42 42" fill="none" xmlns="http://www.w3.org/2000/svg">
<path d="M25.7777 10.255V4.375C25.7777 3.885 25.3927 3.5 24.9027 3.5H17.0977C16.6077 3.5 16.2227 3.885 16.2227 4.375V10.255C16.2227 10.745 16.6077 11.13 17.0977 11.13H24.9027C25.3927 11.13 25.7777 10.745 25.7777 10.255Z" fill="#7B40F2"/>
<path d="M12.6888 3.535C8.20881 3.815 5.1463 6.125 4.0088 9.975C3.8338 10.5525 4.2538 11.13 4.8488 11.13H12.7238C13.2138 11.13 13.5988 10.745 13.5988 10.255V4.41C13.5988 3.92 13.1788 3.5 12.6888 3.535Z" fill="#7B40F2"/>
<path d="M29.3123 3.51742C33.7923 3.79742 36.8548 6.10742 37.9923 9.95742C38.1673 10.5349 37.7473 11.1124 37.1523 11.1124H29.2773C28.7873 11.1124 28.4023 10.7274 28.4023 10.2374V4.39242C28.4023 3.90242 28.8223 3.48242 29.3123 3.51742Z" fill="#7B40F2"/>
<path d="M38.5 14.6299V22.2949C38.5 22.9424 37.8175 23.3624 37.24 23.0649C35.77 22.2949 34.09 21.8749 32.375 21.8749C29.5575 21.8749 26.81 23.0299 24.85 25.0424C22.925 27.0024 21.875 29.6099 21.875 32.3749C21.875 33.7924 22.435 35.6124 23.135 37.1349C23.415 37.7474 22.995 38.4999 22.3125 38.4999H13.6675C8.05 38.4999 3.5 33.9499 3.5 28.3324V14.6299C3.5 14.1399 3.885 13.7549 4.375 13.7549H37.625C38.115 13.7549 38.5 14.1399 38.5 14.6299Z" fill="#7B40F2"/>
<path d="M35.91 19.25H27.09C23.28 19.25 21 21.53 21 25.34V34.16C21 37.97 23.28 40.25 27.09 40.25H35.91C39.72 40.25 42 37.97 42 34.16V25.34C42 21.53 39.72 19.25 35.91 19.25ZM36.57 29.18C36.21 29.54 35.73 29.72 35.25 29.72C34.77 29.72 34.29 29.54 33.93 29.18L33.39 28.64V35.36C33.39 36.41 32.55 37.25 31.5 37.25C30.45 37.25 29.61 36.41 29.61 35.36V28.64L29.07 29.18C28.35 29.9 27.15 29.9 26.43 29.18C25.71 28.46 25.71 27.26 26.43 26.54L30.18 22.79C30.33 22.64 30.54 22.52 30.75 22.43C30.81 22.4 30.87 22.4 30.93 22.37C31.08 22.31 31.23 22.28 31.41 22.28C31.47 22.28 31.53 22.28 31.59 22.28C31.8 22.28 31.98 22.31 32.19 22.4C32.22 22.4 32.22 22.4 32.25 22.4C32.46 22.49 32.64 22.61 32.79 22.76C32.82 22.79 32.82 22.79 32.85 22.79L36.6 26.54C37.32 27.26 37.32 28.46 36.57 29.18Z" fill="#7B40F2"/>
</svg>
