<svg width="24" height="24" viewBox="0 0 24 24" fill="none" xmlns="http://www.w3.org/2000/svg">
<path d="M11.9688 2C6.44875 2 1.96875 6.48 1.96875 12C1.96875 17.52 6.44875 22 11.9688 22C17.4887 22 21.9688 17.52 21.9688 12C21.9688 6.48 17.4988 2 11.9688 2ZM17.3987 16.43C16.1687 18.2 14.1487 19.25 11.9987 19.25C9.84875 19.25 7.82875 18.2 6.59875 16.43C6.35875 16.09 6.44875 15.62 6.78875 15.39C7.12875 15.15 7.59875 15.24 7.82875 15.58C8.77875 16.94 10.3387 17.76 11.9987 17.76C13.6587 17.76 15.2187 16.95 16.1687 15.58C16.4087 15.24 16.8687 15.16 17.2087 15.39C17.5587 15.62 17.6387 16.09 17.3987 16.43Z" fill="#7B40F2"/>
</svg>
