<svg width="24" height="24" viewBox="0 0 24 24" fill="none" xmlns="http://www.w3.org/2000/svg">
<path d="M20.0486 10.6301L15.3786 8.62006L14.3386 8.18006C14.1786 8.10006 14.0386 7.89006 14.0386 7.71006V4.65006C14.0386 3.69006 13.3286 2.55006 12.4686 2.11006C12.1686 1.96006 11.8086 1.96006 11.5086 2.11006C10.6586 2.55006 9.94859 3.70006 9.94859 4.66006V7.72006C9.94859 7.90006 9.80859 8.11006 9.64859 8.19006L3.94859 10.6401C3.31859 10.9001 2.80859 11.6901 2.80859 12.3701V13.6901C2.80859 14.5401 3.44859 14.9601 4.23859 14.6201L9.24859 12.4601C9.63859 12.2901 9.95859 12.5001 9.95859 12.9301V14.0401V15.8401C9.95859 16.0701 9.82859 16.4001 9.66859 16.5601L7.34859 18.8901C7.10859 19.1301 6.99859 19.6001 7.10859 19.9401L7.55859 21.3001C7.73859 21.8901 8.40859 22.1701 8.95859 21.8901L11.3386 19.8901C11.6986 19.5801 12.2886 19.5801 12.6486 19.8901L15.0286 21.8901C15.5786 22.1601 16.2486 21.8901 16.4486 21.3001L16.8986 19.9401C17.0086 19.6101 16.8986 19.1301 16.6586 18.8901L14.3386 16.5601C14.1686 16.4001 14.0386 16.0701 14.0386 15.8401V12.9301C14.0386 12.5001 14.3486 12.3001 14.7486 12.4601L19.7586 14.6201C20.5486 14.9601 21.1886 14.5401 21.1886 13.6901V12.3701C21.1886 11.6901 20.6786 10.9001 20.0486 10.6301Z" fill="#7B40F2"/>
</svg>
