<svg width="50" height="50" viewBox="0 0 50 50" fill="none" xmlns="http://www.w3.org/2000/svg">
<path d="M33.7292 4.16675H16.2709C8.68752 4.16675 4.16669 8.68758 4.16669 16.2709V33.7084C4.16669 41.3126 8.68752 45.8334 16.2709 45.8334H33.7084C41.2917 45.8334 45.8125 41.3126 45.8125 33.7293V16.2709C45.8334 8.68758 41.3125 4.16675 33.7292 4.16675ZM25 33.0834C20.5417 33.0834 16.9167 29.4584 16.9167 25.0001C16.9167 20.5417 20.5417 16.9167 25 16.9167C29.4584 16.9167 33.0834 20.5417 33.0834 25.0001C33.0834 29.4584 29.4584 33.0834 25 33.0834ZM37.3334 14.3334C37.2292 14.5834 37.0834 14.8126 36.8959 15.0209C36.6875 15.2084 36.4584 15.3542 36.2084 15.4584C35.9584 15.5626 35.6875 15.6251 35.4167 15.6251C34.8542 15.6251 34.3334 15.4167 33.9375 15.0209C33.75 14.8126 33.6042 14.5834 33.5 14.3334C33.3959 14.0834 33.3334 13.8126 33.3334 13.5417C33.3334 13.2709 33.3959 13.0001 33.5 12.7501C33.6042 12.4792 33.75 12.2709 33.9375 12.0626C34.4167 11.5834 35.1459 11.3542 35.8125 11.5001C35.9584 11.5209 36.0834 11.5626 36.2084 11.6251C36.3334 11.6667 36.4584 11.7292 36.5834 11.8126C36.6875 11.8751 36.7917 11.9792 36.8959 12.0626C37.0834 12.2709 37.2292 12.4792 37.3334 12.7501C37.4375 13.0001 37.5 13.2709 37.5 13.5417C37.5 13.8126 37.4375 14.0834 37.3334 14.3334Z" fill="#7B40F2"/>
</svg>
