<svg width="23" height="15" viewBox="0 0 23 15" fill="none" xmlns="http://www.w3.org/2000/svg">
<path d="M10.046 6.535C9.92 6.29233 9.745 6.11033 9.521 5.989C9.297 5.863 9.038 5.8 8.744 5.8C8.422 5.8 8.135 5.87233 7.883 6.017C7.631 6.16167 7.43267 6.367 7.288 6.633C7.148 6.899 7.078 7.207 7.078 7.557C7.078 7.907 7.148 8.21733 7.288 8.488C7.43267 8.754 7.631 8.95933 7.883 9.104C8.135 9.24867 8.422 9.321 8.744 9.321C9.178 9.321 9.53033 9.19967 9.801 8.957C10.0717 8.71433 10.2373 8.38533 10.298 7.97H8.471V7.333H11.152V7.956C11.1007 8.334 10.9653 8.68167 10.746 8.999C10.5313 9.31633 10.249 9.57067 9.899 9.762C9.55367 9.94867 9.16867 10.042 8.744 10.042C8.28667 10.042 7.869 9.937 7.491 9.727C7.113 9.51233 6.812 9.216 6.588 8.838C6.36867 8.46 6.259 8.033 6.259 7.557C6.259 7.081 6.36867 6.654 6.588 6.276C6.812 5.898 7.113 5.604 7.491 5.394C7.87367 5.17933 8.29133 5.072 8.744 5.072C9.262 5.072 9.72167 5.20033 10.123 5.457C10.529 5.709 10.823 6.06833 11.005 6.535H10.046ZM12.7371 5.135V10H11.9391V5.135H12.7371ZM16.6478 5.135V5.786H14.5828V7.221H16.1928V7.872H14.5828V10H13.7848V5.135H16.6478Z" fill="#292D32"/>
<rect x="0.75" y="0.75" width="21.5" height="13.5" rx="4.25" stroke="#292D32" strokeWidth="1.5"/>
</svg>
