<svg width="20" height="20" viewBox="0 0 20 20" fill="none" xmlns="http://www.w3.org/2000/svg">
<path d="M7.50033 18.3334H12.5003C16.667 18.3334 18.3337 16.6667 18.3337 12.5001V7.50008C18.3337 3.33341 16.667 1.66675 12.5003 1.66675H7.50033C3.33366 1.66675 1.66699 3.33341 1.66699 7.50008V12.5001C1.66699 16.6667 3.33366 18.3334 7.50033 18.3334Z" stroke="#292D32" strokeWidth="1.5" strokeLinecap="round" strokeLinejoin="round"/>
<path d="M7.49967 8.33333C8.42015 8.33333 9.16634 7.58714 9.16634 6.66667C9.16634 5.74619 8.42015 5 7.49967 5C6.5792 5 5.83301 5.74619 5.83301 6.66667C5.83301 7.58714 6.5792 8.33333 7.49967 8.33333Z" stroke="#292D32" strokeWidth="1.5" strokeLinecap="round" strokeLinejoin="round"/>
<path d="M2.22461 15.7916L6.33294 13.0332C6.99128 12.5916 7.94128 12.6416 8.53294 13.1499L8.80794 13.3916C9.45794 13.9499 10.5079 13.9499 11.1579 13.3916L14.6246 10.4166C15.2746 9.85822 16.3246 9.85822 16.9746 10.4166L18.3329 11.5832" stroke="#292D32" strokeWidth="1.5" strokeLinecap="round" strokeLinejoin="round"/>
</svg>
