<svg width="20" height="20" viewBox="0 0 20 20" fill="none" xmlns="http://www.w3.org/2000/svg">
<path d="M18.3329 9.70844H13.4996C12.2246 9.70844 11.3496 8.74175 11.3496 7.55842V4.87506C11.3496 3.69173 12.2246 2.7251 13.4996 2.7251H16.1829C17.3663 2.7251 18.3329 3.69173 18.3329 4.87506V9.70844Z" stroke="#292D32" strokeWidth="1.5" strokeLinecap="round" strokeLinejoin="round"/>
<path d="M18.3326 9.7085C18.3326 14.7502 17.391 15.5835 14.5576 17.2668" stroke="#292D32" strokeWidth="1.5" strokeLinecap="round" strokeLinejoin="round"/>
<path d="M8.64154 9.70844H3.8082C2.5332 9.70844 1.6582 8.74175 1.6582 7.55842V4.87506C1.6582 3.69173 2.5332 2.7251 3.8082 2.7251H6.49987C7.6832 2.7251 8.64987 3.69173 8.64987 4.87506V9.70844" stroke="#292D32" strokeWidth="1.5" strokeLinecap="round" strokeLinejoin="round"/>
<path d="M8.64121 9.7085C8.64121 14.7502 7.69954 15.5835 4.86621 17.2668" stroke="#292D32" strokeWidth="1.5" strokeLinecap="round" strokeLinejoin="round"/>
</svg>
