<svg width="20" height="20" viewBox="0 0 20 20" fill="none" xmlns="http://www.w3.org/2000/svg">
<path d="M3.47532 12.7502L7.25032 16.5252C8.80032 18.0752 11.317 18.0752 12.8753 16.5252L16.5337 12.8668C18.0837 11.3168 18.0837 8.80016 16.5337 7.24183L12.7503 3.47516C11.9587 2.6835 10.867 2.2585 9.75032 2.31683L5.58365 2.51683C3.91698 2.59183 2.59198 3.91683 2.50865 5.57516L2.30865 9.74183C2.25865 10.8668 2.68365 11.9585 3.47532 12.7502Z" stroke="#292D32" strokeWidth="1.5" strokeLinecap="round" strokeLinejoin="round"/>
<path d="M7.91634 10.0002C9.06694 10.0002 9.99968 9.06742 9.99968 7.91683C9.99968 6.76624 9.06694 5.8335 7.91634 5.8335C6.76575 5.8335 5.83301 6.76624 5.83301 7.91683C5.83301 9.06742 6.76575 10.0002 7.91634 10.0002Z" stroke="#292D32" strokeWidth="1.5" strokeLinecap="round"/>
</svg>
