<svg width="20" height="20" viewBox="0 0 20 20" fill="none" xmlns="http://www.w3.org/2000/svg">
<path d="M17.5 4.375H2.5C2.15833 4.375 1.875 4.09167 1.875 3.75C1.875 3.40833 2.15833 3.125 2.5 3.125H17.5C17.8417 3.125 18.125 3.40833 18.125 3.75C18.125 4.09167 17.8417 4.375 17.5 4.375Z" fill="#292D32"/>
<path d="M17.501 8.54166H9.60938C9.26771 8.54166 8.98438 8.25832 8.98438 7.91666C8.98438 7.57499 9.26771 7.29166 9.60938 7.29166H17.501C17.8427 7.29166 18.126 7.57499 18.126 7.91666C18.126 8.25832 17.8427 8.54166 17.501 8.54166Z" fill="#292D32"/>
<path d="M17.5 12.7083H2.5C2.15833 12.7083 1.875 12.425 1.875 12.0833C1.875 11.7417 2.15833 11.4583 2.5 11.4583H17.5C17.8417 11.4583 18.125 11.7417 18.125 12.0833C18.125 12.425 17.8417 12.7083 17.5 12.7083Z" fill="#292D32"/>
<path d="M17.501 16.875H9.60938C9.26771 16.875 8.98438 16.5917 8.98438 16.25C8.98438 15.9083 9.26771 15.625 9.60938 15.625H17.501C17.8427 15.625 18.126 15.9083 18.126 16.25C18.126 16.5917 17.8427 16.875 17.501 16.875Z" fill="#292D32"/>
</svg>
