<svg width="20" height="20" viewBox="0 0 20 20" fill="none" xmlns="http://www.w3.org/2000/svg">
<path d="M17.5 3.875H2.5C2.46985 3.875 2.43857 3.86272 2.41293 3.83707C2.38728 3.81143 2.375 3.78015 2.375 3.75C2.375 3.71985 2.38728 3.68857 2.41293 3.66293C2.43857 3.63728 2.46985 3.625 2.5 3.625H17.5C17.5301 3.625 17.5614 3.63728 17.5871 3.66293C17.6127 3.68857 17.625 3.71985 17.625 3.75C17.625 3.78015 17.6127 3.81143 17.5871 3.83707C17.5614 3.86272 17.5301 3.875 17.5 3.875Z" fill="#292D32" stroke="#292D32"/>
<path d="M10.3917 8.54166H2.5C2.15833 8.54166 1.875 8.25832 1.875 7.91666C1.875 7.57499 2.15833 7.29166 2.5 7.29166H10.3917C10.7333 7.29166 11.0167 7.57499 11.0167 7.91666C11.0167 8.25832 10.7417 8.54166 10.3917 8.54166Z" fill="#292D32"/>
<path d="M17.5 12.7083H2.5C2.15833 12.7083 1.875 12.425 1.875 12.0833C1.875 11.7417 2.15833 11.4583 2.5 11.4583H17.5C17.8417 11.4583 18.125 11.7417 18.125 12.0833C18.125 12.425 17.8417 12.7083 17.5 12.7083Z" fill="#292D32"/>
<path d="M10.3917 16.875H2.5C2.15833 16.875 1.875 16.5917 1.875 16.25C1.875 15.9083 2.15833 15.625 2.5 15.625H10.3917C10.7333 15.625 11.0167 15.9083 11.0167 16.25C11.0167 16.5917 10.7417 16.875 10.3917 16.875Z" fill="#292D32"/>
</svg>
