<svg width="20" height="20" viewBox="0 0 20 20" fill="none" xmlns="http://www.w3.org/2000/svg">
<path d="M7.50033 18.3334H12.5003C16.667 18.3334 18.3337 16.6667 18.3337 12.5001V7.50008C18.3337 3.33341 16.667 1.66675 12.5003 1.66675H7.50033C3.33366 1.66675 1.66699 3.33341 1.66699 7.50008V12.5001C1.66699 16.6667 3.33366 18.3334 7.50033 18.3334Z" stroke="#292D32" strokeWidth="1.5" strokeLinecap="round" strokeLinejoin="round"/>
<path d="M7.58301 9.99999V8.76666C7.58301 7.17499 8.70801 6.53333 10.083 7.32499L11.1497 7.94166L12.2163 8.55833C13.5913 9.34999 13.5913 10.65 12.2163 11.4417L11.1497 12.0583L10.083 12.675C8.70801 13.4667 7.58301 12.8167 7.58301 11.2333V9.99999Z" stroke="#292D32" strokeWidth="1.5" strokeMiterlimit="10" strokeLinecap="round" strokeLinejoin="round"/>
</svg>
