<svg width="41" height="41" viewBox="0 0 41 41" fill="none" xmlns="http://www.w3.org/2000/svg">
<path d="M37.0196 11.8729C35.9263 8.16583 32.8342 5.07375 29.1271 3.98042C26.3084 3.16042 24.3609 3.22875 23.0113 4.23667C21.3884 5.44958 21.2004 7.63625 21.2004 9.19083V13.4446C21.2004 17.6471 23.1138 19.7825 26.8721 19.7825H31.775C33.3125 19.7825 35.5163 19.5946 36.7292 17.9717C37.7713 16.6392 37.8567 14.6917 37.0196 11.8729Z" fill="#8F5CF6"/>
<path d="M32.3045 22.8233C31.8603 22.3108 31.2111 22.0204 30.5449 22.0204H24.4291C21.4224 22.0204 18.9795 19.5775 18.9795 16.5708V10.455C18.9795 9.78876 18.6891 9.1396 18.1766 8.69543C17.6811 8.25126 16.9978 8.04626 16.3486 8.13168C12.3341 8.64418 8.64405 10.8479 6.2353 14.1621C3.80947 17.4933 2.92114 21.5592 3.68989 25.625C4.8003 31.5017 9.49822 36.1996 15.392 37.31C16.3316 37.4979 17.2711 37.5833 18.2107 37.5833C21.3028 37.5833 24.2924 36.6267 26.8378 34.7646C30.152 32.3558 32.3557 28.6658 32.8682 24.6513C32.9536 23.985 32.7486 23.3188 32.3045 22.8233Z" fill="#8F5CF6"/>
</svg>
