<svg width="41" height="41" viewBox="0 0 41 41" fill="none" xmlns="http://www.w3.org/2000/svg">
<path d="M20.3042 32.7487V31.8349L19.3941 31.7527C13.0862 31.1836 8.14087 25.8864 8.14087 19.4579V16.7587C8.14087 16.6447 8.22274 16.5629 8.3367 16.5629C8.45067 16.5629 8.53254 16.6447 8.53254 16.7587V19.475C8.53254 26.0747 13.9003 31.4425 20.5 31.4425C27.0998 31.4425 32.4675 26.0747 32.4675 19.475V16.7758C32.4675 16.6618 32.5494 16.5799 32.6634 16.5799C32.7533 16.5799 32.852 16.6589 32.8592 16.7771V19.4579C32.8592 25.8875 27.8961 31.1996 21.6083 31.7525L20.6959 31.8328V32.7487V36.3875C20.6959 36.5014 20.614 36.5833 20.5 36.5833C20.3861 36.5833 20.3042 36.5014 20.3042 36.3875V32.7487Z" fill="#292D32" stroke="#8F5CF6" stroke-width="2"/>
<path d="M20.5001 3.41663C16.3317 3.41663 12.9492 6.79913 12.9492 10.9675V19.7141C12.9492 23.8825 16.3317 27.265 20.5001 27.265C24.6684 27.265 28.0509 23.8825 28.0509 19.7141V10.9675C28.0509 6.79913 24.6684 3.41663 20.5001 3.41663ZM22.738 15.2895C22.6184 15.7337 22.2255 16.0241 21.7813 16.0241C21.6959 16.0241 21.6105 16.007 21.5251 15.99C20.8588 15.802 20.1584 15.802 19.4921 15.99C18.9455 16.1437 18.4159 15.8191 18.2792 15.2895C18.1255 14.76 18.4501 14.2133 18.9796 14.0766C19.9876 13.8033 21.0467 13.8033 22.0546 14.0766C22.5671 14.2133 22.8746 14.76 22.738 15.2895ZM23.6434 11.9754C23.4896 12.3854 23.1138 12.6245 22.7038 12.6245C22.5842 12.6245 22.4817 12.6075 22.3621 12.5733C21.1663 12.1291 19.8338 12.1291 18.638 12.5733C18.1255 12.7612 17.5446 12.4879 17.3567 11.9754C17.1688 11.4629 17.4421 10.882 17.9546 10.7112C19.5946 10.1133 21.4055 10.1133 23.0455 10.7112C23.558 10.8991 23.8313 11.4629 23.6434 11.9754Z" fill="#8F5CF6"/>
</svg>
