<svg width="41" height="41" viewBox="0 0 41 41" fill="none" xmlns="http://www.w3.org/2000/svg">
<path d="M37.5833 21.9692C37.5833 25.8813 35.5674 29.3492 32.4583 31.5358L30.1691 36.5754C29.6395 37.72 28.102 37.9421 27.2991 36.9683L24.7708 33.9275C21.5933 33.9275 18.672 32.8513 16.4512 31.0575L17.4762 29.8446C25.3687 29.2467 31.6041 22.9942 31.6041 15.375C31.6041 14.0767 31.4162 12.7954 31.0745 11.5654C34.9524 13.6154 37.5833 17.5104 37.5833 21.9692Z" fill="#8F5CF6"/>
<path d="M27.8459 10.3695C25.8472 6.26954 21.3884 3.41663 16.2292 3.41663C9.15675 3.41663 3.41675 8.76371 3.41675 15.375C3.41675 19.287 5.43258 22.755 8.54175 24.9416L10.8309 29.9812C11.3605 31.1258 12.898 31.3308 13.7009 30.3741L14.6405 29.2466L16.2292 27.3333C23.3017 27.3333 29.0417 21.9862 29.0417 15.375C29.0417 13.5812 28.6147 11.89 27.8459 10.3695ZM20.5001 16.6562H11.9584C11.258 16.6562 10.6772 16.0754 10.6772 15.375C10.6772 14.6745 11.258 14.0937 11.9584 14.0937H20.5001C21.2005 14.0937 21.7813 14.6745 21.7813 15.375C21.7813 16.0754 21.2005 16.6562 20.5001 16.6562Z" fill="#8F5CF6"/>
</svg>
