<svg width="41" height="41" viewBox="0 0 41 41" fill="none" xmlns="http://www.w3.org/2000/svg">
<path d="M10.25 22.2083C5.53504 22.2083 1.70837 26.0179 1.70837 30.75C1.70837 35.4821 5.53504 39.2916 10.25 39.2916C14.965 39.2916 18.7917 35.465 18.7917 30.75C18.7917 26.035 14.9821 22.2083 10.25 22.2083ZM6.76504 27.265H10.25C10.8992 27.265 11.4117 27.7946 11.4117 28.4266C11.4117 29.0587 10.8992 29.5883 10.25 29.5883H6.76504C6.11587 29.5883 5.60337 29.0587 5.60337 28.4266C5.60337 27.7946 6.11587 27.265 6.76504 27.265ZM13.735 34.235H6.76504C6.11587 34.235 5.60337 33.7054 5.60337 33.0733C5.60337 32.4412 6.13296 31.9116 6.76504 31.9116H13.7521C14.4013 31.9116 14.9138 32.4412 14.9138 33.0733C14.9138 33.7054 14.3842 34.235 13.735 34.235Z" fill="#8F5CF6"/>
<path d="M29.0416 5.125H11.9583C6.83329 5.125 3.41663 7.6875 3.41663 13.6667V19.0308C3.41663 20.2779 4.69788 21.0638 5.84246 20.5683C7.72163 19.7483 9.85704 19.4408 12.095 19.7996C16.5708 20.5342 20.2266 24.0704 21.132 28.5121C21.3883 29.8104 21.4225 31.0746 21.2516 32.2875C21.115 33.2954 21.935 34.1838 22.9429 34.1838H29.0416C34.1666 34.1838 37.5833 31.6213 37.5833 25.6421V13.6667C37.5833 7.6875 34.1666 5.125 29.0416 5.125ZM29.8445 14.6746L24.4975 18.9454C23.37 19.8508 21.935 20.295 20.5 20.295C19.065 20.295 17.6129 19.8508 16.5025 18.9454L11.1554 14.6746C10.6087 14.2304 10.5233 13.4104 10.9504 12.8638C11.3945 12.3171 12.1975 12.2146 12.7441 12.6588L18.0912 16.9296C19.3895 17.9717 21.5933 17.9717 22.8916 16.9296L28.2387 12.6588C28.7854 12.2146 29.6054 12.3 30.0325 12.8638C30.4766 13.4104 30.3912 14.2304 29.8445 14.6746Z" fill="#8F5CF6"/>
</svg>
