<svg width="41" height="41" viewBox="0 0 41 41" fill="none" xmlns="http://www.w3.org/2000/svg">
<path d="M33.0392 24.7537L31.3308 21.9179C30.9721 21.2858 30.6475 20.09 30.6475 19.3896V15.0675C30.6475 11.0529 28.29 7.585 24.8904 5.96208C24.0021 4.39041 22.3621 3.41666 20.4829 3.41666C18.6208 3.41666 16.9467 4.42458 16.0583 6.01333C12.7271 7.67041 10.4208 11.1042 10.4208 15.0675V19.3896C10.4208 20.09 10.0963 21.2858 9.7375 21.9008L8.01209 24.7537C7.32875 25.8983 7.175 27.1625 7.60209 28.3242C8.01209 29.4687 8.98584 30.3571 10.25 30.7842C13.5642 31.9117 17.0492 32.4583 20.5342 32.4583C24.0192 32.4583 27.5042 31.9117 30.8183 30.8013C32.0142 30.4083 32.9367 29.5029 33.3808 28.3242C33.825 27.1454 33.7054 25.8471 33.0392 24.7537Z" fill="#905CF7"/>
<path d="M25.3346 34.1837C24.6171 36.1654 22.7208 37.5833 20.5 37.5833C19.1504 37.5833 17.8179 37.0367 16.8783 36.0629C16.3317 35.5504 15.9217 34.8671 15.6825 34.1667C15.9046 34.2008 16.1267 34.2179 16.3658 34.2521C16.7587 34.3033 17.1687 34.3546 17.5787 34.3887C18.5525 34.4742 19.5433 34.5254 20.5342 34.5254C21.5079 34.5254 22.4817 34.4742 23.4383 34.3887C23.7971 34.3546 24.1558 34.3375 24.4975 34.2862C24.7708 34.2521 25.0442 34.2179 25.3346 34.1837Z" fill="#905CF7"/>
</svg>
