<svg width="41" height="41" viewBox="0 0 41 41" fill="none" xmlns="http://www.w3.org/2000/svg">
<path d="M20.5001 3.41663C11.0872 3.41663 3.41675 11.087 3.41675 20.5C3.41675 29.9129 11.0872 37.5833 20.5001 37.5833C29.913 37.5833 37.5834 29.9129 37.5834 20.5C37.5834 11.087 29.913 3.41663 20.5001 3.41663ZM27.3334 21.7812H21.7813V27.3333C21.7813 28.0337 21.2005 28.6145 20.5001 28.6145C19.7997 28.6145 19.2188 28.0337 19.2188 27.3333V21.7812H13.6667C12.9663 21.7812 12.3855 21.2004 12.3855 20.5C12.3855 19.7995 12.9663 19.2187 13.6667 19.2187H19.2188V13.6666C19.2188 12.9662 19.7997 12.3854 20.5001 12.3854C21.2005 12.3854 21.7813 12.9662 21.7813 13.6666V19.2187H27.3334C28.0338 19.2187 28.6147 19.7995 28.6147 20.5C28.6147 21.2004 28.0338 21.7812 27.3334 21.7812Z" fill="#8F5CF6"/>
</svg>
