<svg width="41" height="41" viewBox="0 0 41 41" fill="none" xmlns="http://www.w3.org/2000/svg">
<path d="M22.9429 9.27625V11.5654C18.4671 11.9242 15.9217 14.7942 15.9217 19.5262V27.3333H9.27624C5.36416 27.3333 3.41666 25.3858 3.41666 21.4737V9.27625C3.41666 5.36416 5.36416 3.41666 9.27624 3.41666H17.0833C20.9954 3.41666 22.9429 5.36416 22.9429 9.27625Z" fill="#905CF7"/>
<path d="M31.7237 13.6667H23.9167C20.0046 13.6667 18.0571 15.6142 18.0571 19.5263V31.7238C18.0571 35.6358 20.0046 37.5833 23.9167 37.5833H31.7237C35.6358 37.5833 37.5833 35.6358 37.5833 31.7238V19.5263C37.5833 15.6142 35.6358 13.6667 31.7237 13.6667ZM30.9721 26.9063H29.4687V28.4096C29.4687 29.11 28.8879 29.6908 28.1875 29.6908C27.4871 29.6908 26.9062 29.11 26.9062 28.4096V26.9063H25.4029C24.7025 26.9063 24.1217 26.3254 24.1217 25.625C24.1217 24.9246 24.7025 24.3438 25.4029 24.3438H26.9062V22.8404C26.9062 22.14 27.4871 21.5592 28.1875 21.5592C28.8879 21.5592 29.4687 22.14 29.4687 22.8404V24.3438H30.9721C31.6725 24.3438 32.2533 24.9246 32.2533 25.625C32.2533 26.3254 31.6725 26.9063 30.9721 26.9063Z" fill="#905CF7"/>
</svg>
