<svg width="41" height="41" viewBox="0 0 41 41" fill="none" xmlns="http://www.w3.org/2000/svg">
<path d="M27.3333 3.41666H13.6667C7.6875 3.41666 5.125 6.83333 5.125 11.9583V29.0417C5.125 34.1667 7.6875 37.5833 13.6667 37.5833H27.3333C33.3125 37.5833 35.875 34.1667 35.875 29.0417V11.9583C35.875 6.83333 33.3125 3.41666 27.3333 3.41666ZM13.6667 20.9271H20.5C21.2004 20.9271 21.7813 21.5079 21.7813 22.2083C21.7813 22.9087 21.2004 23.4896 20.5 23.4896H13.6667C12.9663 23.4896 12.3854 22.9087 12.3854 22.2083C12.3854 21.5079 12.9663 20.9271 13.6667 20.9271ZM27.3333 30.3229H13.6667C12.9663 30.3229 12.3854 29.7421 12.3854 29.0417C12.3854 28.3412 12.9663 27.7604 13.6667 27.7604H27.3333C28.0338 27.7604 28.6146 28.3412 28.6146 29.0417C28.6146 29.7421 28.0338 30.3229 27.3333 30.3229ZM31.6042 15.8021H28.1875C25.5908 15.8021 23.4896 13.7008 23.4896 11.1042V7.6875C23.4896 6.98708 24.0704 6.40625 24.7708 6.40625C25.4713 6.40625 26.0521 6.98708 26.0521 7.6875V11.1042C26.0521 12.2829 27.0088 13.2396 28.1875 13.2396H31.6042C32.3046 13.2396 32.8854 13.8204 32.8854 14.5208C32.8854 15.2212 32.3046 15.8021 31.6042 15.8021Z" fill="#905CF7"/>
</svg>
