<svg width="41" height="41" viewBox="0 0 41 41" fill="none" xmlns="http://www.w3.org/2000/svg">
<path d="M29.042 5.97913H11.9587C6.83366 5.97913 3.41699 8.54163 3.41699 14.5208V26.4791C3.41699 32.4583 6.83366 35.0208 11.9587 35.0208H29.042C34.167 35.0208 37.5837 32.4583 37.5837 26.4791V14.5208C37.5837 8.54163 34.167 5.97913 29.042 5.97913ZM29.8449 16.3829L24.4978 20.6537C23.3703 21.5591 21.9353 22.0033 20.5003 22.0033C19.0653 22.0033 17.6132 21.5591 16.5028 20.6537L11.1557 16.3829C10.6091 15.9387 10.5237 15.1187 10.9507 14.572C11.3949 14.0254 12.1978 13.9229 12.7445 14.367L18.0916 18.6379C19.3899 19.68 21.5937 19.68 22.892 18.6379L28.2391 14.367C28.7857 13.9229 29.6057 14.0083 30.0328 14.572C30.477 15.1187 30.3916 15.9387 29.8449 16.3829Z" fill="#8F5CF6"/>
</svg>
