<svg width="41" height="41" viewBox="0 0 41 41" fill="none" xmlns="http://www.w3.org/2000/svg">
<path d="M37.5834 27.6579C37.5834 33.8762 33.8763 37.5833 27.658 37.5833H25.6251C24.6855 37.5833 23.9167 36.8145 23.9167 35.875V26.0179C23.9167 25.5566 24.2926 25.1637 24.7538 25.1637L27.7605 25.1125C27.9997 25.0954 28.2047 24.9246 28.2559 24.6854L28.8539 21.4225C28.9051 21.115 28.6659 20.8245 28.3413 20.8245L24.7026 20.8758C24.2242 20.8758 23.8484 20.5 23.8314 20.0387L23.763 15.8533C23.763 15.58 23.9851 15.3408 24.2755 15.3408L28.3755 15.2725C28.6659 15.2725 28.888 15.0504 28.888 14.76L28.8197 10.6599C28.8197 10.3695 28.5976 10.1475 28.3072 10.1475L23.6947 10.2158C20.8588 10.2671 18.6039 12.5904 18.6551 15.4262L18.7405 20.1241C18.7576 20.6025 18.3818 20.9783 17.9034 20.9954L15.8534 21.0295C15.563 21.0295 15.3409 21.2516 15.3409 21.542L15.3922 24.7879C15.3922 25.0783 15.6142 25.3004 15.9047 25.3004L17.9547 25.2662C18.433 25.2662 18.8088 25.642 18.8259 26.1033L18.9796 35.8408C18.9967 36.7975 18.228 37.5833 17.2713 37.5833H13.3422C7.12383 37.5833 3.41675 33.8762 3.41675 27.6408V13.342C3.41675 7.12371 7.12383 3.41663 13.3422 3.41663H27.658C33.8763 3.41663 37.5834 7.12371 37.5834 13.342V27.6579Z" fill="#8F5CF6"/>
</svg>
