<svg width="41" height="41" viewBox="0 0 41 41" fill="none" xmlns="http://www.w3.org/2000/svg">
<path d="M18.8088 34.2008C27.3096 34.2008 34.2009 27.3095 34.2009 18.8087C34.2009 10.3079 27.3096 3.41663 18.8088 3.41663C10.308 3.41663 3.41675 10.3079 3.41675 18.8087C3.41675 27.3095 10.308 34.2008 18.8088 34.2008Z" fill="#8F5CF6"/>
<path d="M37.5663 32.3729C37.0025 31.3308 35.8067 30.75 34.2008 30.75C32.9879 30.75 31.9458 31.2454 31.3308 32.0996C30.7158 32.9538 30.5792 34.0983 30.955 35.2429C31.6896 37.4638 32.9708 37.9592 33.6713 38.0446C33.7738 38.0617 33.8763 38.0617 33.9958 38.0617C34.7475 38.0617 35.9092 37.7371 37.0367 36.0458C37.9421 34.7304 38.1129 33.415 37.5663 32.3729Z" fill="#8F5CF6"/>
</svg>
