<svg width="41" height="41" viewBox="0 0 41 41" fill="none" xmlns="http://www.w3.org/2000/svg">
<path d="M35.7895 7.05538C35.2941 6.33788 34.662 5.70579 33.9445 5.21038C32.3216 4.03163 30.2033 3.41663 27.6579 3.41663H13.342C13.0004 3.41663 12.6587 3.43371 12.3341 3.46788C6.73079 3.82663 3.41663 7.46538 3.41663 13.342V27.6579C3.41663 30.2033 4.03163 32.3216 5.21038 33.9445C5.70579 34.662 6.33788 35.2941 7.05538 35.7895C8.45621 36.8145 10.2329 37.4125 12.3341 37.5491C12.6587 37.5662 13.0004 37.5833 13.342 37.5833H27.6579C33.8762 37.5833 37.5833 33.8762 37.5833 27.6579V13.342C37.5833 10.7966 36.9683 8.67829 35.7895 7.05538ZM32.0312 15.2041C32.0312 15.9045 31.4504 16.4854 30.75 16.4854C30.0495 16.4854 29.4687 15.9045 29.4687 15.2041V13.1883C29.4687 12.6416 29.0245 12.1975 28.4779 12.1975H21.7812V28.8025H24.822C25.5225 28.8025 26.1033 29.3833 26.1033 30.0837C26.1033 30.7841 25.5225 31.365 24.822 31.365H16.1779C15.4775 31.365 14.8966 30.7841 14.8966 30.0837C14.8966 29.3833 15.4775 28.8025 16.1779 28.8025H19.2187V12.1975H12.522C11.9754 12.1975 11.5312 12.6416 11.5312 13.1883V15.2041C11.5312 15.9045 10.9504 16.4854 10.25 16.4854C9.54954 16.4854 8.96871 15.9045 8.96871 15.2041V13.1883C8.96871 11.2237 10.5575 9.63496 12.522 9.63496H28.4608C30.4254 9.63496 32.0141 11.2237 32.0141 13.1883V15.2041H32.0312Z" fill="#8F5CF6"/>
</svg>
