<svg width="41" height="41" viewBox="0 0 41 41" fill="none" xmlns="http://www.w3.org/2000/svg">
<path d="M22.5329 10.25H11.5996C11.1554 10.25 10.7284 10.2671 10.3184 10.3183C5.72294 10.7112 3.41669 13.4275 3.41669 18.4329V25.2662C3.41669 32.0996 6.15002 33.4492 11.5996 33.4492H12.2829C12.6588 33.4492 13.1542 33.7054 13.3763 33.9958L15.4263 36.7292C16.3317 37.9421 17.8009 37.9421 18.7063 36.7292L20.7563 33.9958C21.0125 33.6542 21.4225 33.4492 21.8496 33.4492H22.5329C27.5384 33.4492 30.2546 31.16 30.6475 26.5475C30.6988 26.1375 30.7159 25.7104 30.7159 25.2662V18.4329C30.7159 12.9833 27.9825 10.25 22.5329 10.25ZM11.1042 23.9167C10.1475 23.9167 9.39585 23.1479 9.39585 22.2083C9.39585 21.2687 10.1646 20.5 11.1042 20.5C12.0438 20.5 12.8125 21.2687 12.8125 22.2083C12.8125 23.1479 12.0438 23.9167 11.1042 23.9167ZM17.0663 23.9167C16.1096 23.9167 15.3579 23.1479 15.3579 22.2083C15.3579 21.2687 16.1267 20.5 17.0663 20.5C18.0059 20.5 18.7746 21.2687 18.7746 22.2083C18.7746 23.1479 18.0229 23.9167 17.0663 23.9167ZM23.0454 23.9167C22.0888 23.9167 21.3371 23.1479 21.3371 22.2083C21.3371 21.2687 22.1059 20.5 23.0454 20.5C23.985 20.5 24.7538 21.2687 24.7538 22.2083C24.7538 23.1479 23.985 23.9167 23.0454 23.9167Z" fill="#905CF7"/>
<path d="M37.5492 11.5996V18.4329C37.5492 21.8496 36.49 24.1729 34.3717 25.4542C33.8592 25.7617 33.2613 25.3517 33.2613 24.7537L33.2783 18.4329C33.2783 11.5996 29.3663 7.6875 22.5329 7.6875L12.1292 7.70458C11.5313 7.70458 11.1213 7.10666 11.4288 6.59416C12.71 4.47583 15.0333 3.41666 18.4329 3.41666H29.3663C34.8158 3.41666 37.5492 6.15 37.5492 11.5996Z" fill="#905CF7"/>
</svg>
