<svg width="41" height="41" viewBox="0 0 41 41" fill="none" xmlns="http://www.w3.org/2000/svg">
<path d="M27.7433 3.41666H13.2567C8.54167 3.41666 6.83334 5.125 6.83334 9.92541V31.0746C6.83334 35.875 8.54167 37.5833 13.2567 37.5833H27.7262C32.4583 37.5833 34.1667 35.875 34.1667 31.0746V9.92541C34.1667 5.125 32.4583 3.41666 27.7433 3.41666ZM20.5 32.9708C18.86 32.9708 17.5104 31.6212 17.5104 29.9812C17.5104 28.3412 18.86 26.9917 20.5 26.9917C22.14 26.9917 23.4896 28.3412 23.4896 29.9812C23.4896 31.6212 22.14 32.9708 20.5 32.9708ZM23.9167 10.6771H17.0833C16.3829 10.6771 15.8021 10.0962 15.8021 9.39583C15.8021 8.69541 16.3829 8.11458 17.0833 8.11458H23.9167C24.6171 8.11458 25.1979 8.69541 25.1979 9.39583C25.1979 10.0962 24.6171 10.6771 23.9167 10.6771Z" fill="#905CF7"/>
</svg>
