<svg width="41" height="41" viewBox="0 0 41 41" fill="none" xmlns="http://www.w3.org/2000/svg">
<path d="M27.3334 3.41675H13.6667C6.83341 3.41675 3.41675 6.83341 3.41675 13.6667V35.8751C3.41675 36.8147 4.1855 37.5834 5.12508 37.5834H27.3334C34.1667 37.5834 37.5834 34.1667 37.5834 27.3334V13.6667C37.5834 6.83341 34.1667 3.41675 27.3334 3.41675ZM23.9167 26.0522H11.9584C11.258 26.0522 10.6772 25.4713 10.6772 24.7709C10.6772 24.0705 11.258 23.4897 11.9584 23.4897H23.9167C24.6172 23.4897 25.198 24.0705 25.198 24.7709C25.198 25.4713 24.6172 26.0522 23.9167 26.0522ZM29.0417 17.5105H11.9584C11.258 17.5105 10.6772 16.9297 10.6772 16.2292C10.6772 15.5288 11.258 14.948 11.9584 14.948H29.0417C29.7422 14.948 30.323 15.5288 30.323 16.2292C30.323 16.9297 29.7422 17.5105 29.0417 17.5105Z" fill="#8F5CF6"/>
</svg>
