<svg width="41" height="41" viewBox="0 0 41 41" fill="none" xmlns="http://www.w3.org/2000/svg">
<path d="M15.375 3.41666C10.8992 3.41666 7.26042 7.05541 7.26042 11.5312C7.26042 15.9217 10.6942 19.475 15.17 19.6287C15.3067 19.6117 15.4433 19.6117 15.5458 19.6287C15.58 19.6287 15.5971 19.6287 15.6313 19.6287C15.6483 19.6287 15.6483 19.6287 15.6654 19.6287C20.0388 19.475 23.4725 15.9217 23.4896 11.5312C23.4896 7.05541 19.8508 3.41666 15.375 3.41666Z" fill="#905CF7"/>
<path d="M24.0533 24.1729C19.2871 20.9954 11.5142 20.9954 6.71374 24.1729C4.54416 25.625 3.34833 27.5896 3.34833 29.6908C3.34833 31.7921 4.54416 33.7396 6.69666 35.1746C9.08833 36.7804 12.2317 37.5833 15.375 37.5833C18.5183 37.5833 21.6617 36.7804 24.0533 35.1746C26.2058 33.7225 27.4017 31.775 27.4017 29.6567C27.3846 27.5554 26.2058 25.6079 24.0533 24.1729Z" fill="#905CF7"/>
<path d="M34.1496 12.5392C34.4229 15.8533 32.0654 18.7575 28.8025 19.1504C28.7854 19.1504 28.7854 19.1504 28.7683 19.1504H28.7171C28.6146 19.1504 28.5121 19.1504 28.4267 19.1846C26.7696 19.27 25.2492 18.7404 24.1046 17.7667C25.8642 16.195 26.8721 13.8375 26.6671 11.275C26.5475 9.89125 26.0692 8.62708 25.3517 7.55083C26.0008 7.22625 26.7525 7.02125 27.5213 6.95292C30.8696 6.6625 33.8592 9.15667 34.1496 12.5392Z" fill="#905CF7"/>
<path d="M37.5662 28.3412C37.4296 29.9983 36.3704 31.4333 34.5937 32.4071C32.8854 33.3467 30.7329 33.7908 28.5975 33.7396C29.8275 32.6292 30.545 31.2454 30.6817 29.7762C30.8525 27.6579 29.8446 25.625 27.8288 24.0021C26.6842 23.0967 25.3517 22.3792 23.8996 21.8496C27.675 20.7562 32.4242 21.4908 35.3454 23.8483C36.9171 25.1125 37.72 26.7012 37.5662 28.3412Z" fill="#905CF7"/>
</svg>
