<svg width="41" height="41" viewBox="0 0 41 41" fill="none" xmlns="http://www.w3.org/2000/svg">
<path d="M37.5833 18.3646C38.2837 18.3646 38.8645 17.7837 38.8645 17.0833V15.375C38.8645 7.84123 36.5754 5.55206 29.0416 5.55206H18.3645V9.39581C18.3645 10.0962 17.7837 10.6771 17.0833 10.6771C16.3829 10.6771 15.802 10.0962 15.802 9.39581V5.55206H11.9583C4.42454 5.55206 2.13538 7.84123 2.13538 15.375V16.2291C2.13538 16.9296 2.71621 17.5104 3.41663 17.5104C5.05663 17.5104 6.40621 18.86 6.40621 20.5C6.40621 22.14 5.05663 23.4896 3.41663 23.4896C2.71621 23.4896 2.13538 24.0704 2.13538 24.7708V25.625C2.13538 33.1587 4.42454 35.4479 11.9583 35.4479H15.802V31.6041C15.802 30.9037 16.3829 30.3229 17.0833 30.3229C17.7837 30.3229 18.3645 30.9037 18.3645 31.6041V35.4479H29.0416C36.5754 35.4479 38.8645 33.1587 38.8645 25.625C38.8645 24.9246 38.2837 24.3437 37.5833 24.3437C35.9433 24.3437 34.5937 22.9941 34.5937 21.3541C34.5937 19.7141 35.9433 18.3646 37.5833 18.3646ZM18.3645 24.2071C18.3645 24.9075 17.7837 25.4883 17.0833 25.4883C16.3829 25.4883 15.802 24.9075 15.802 24.2071V16.7929C15.802 16.0925 16.3829 15.5116 17.0833 15.5116C17.7837 15.5116 18.3645 16.0925 18.3645 16.7929V24.2071Z" fill="#8F5CF6"/>
</svg>
