<svg width="41" height="41" viewBox="0 0 41 41" fill="none" xmlns="http://www.w3.org/2000/svg">
<path d="M34.0208 27.3333V31.6042C34.0208 34.349 31.7865 36.5833 29.0417 36.5833H11.9583C9.21354 36.5833 6.97917 34.349 6.97917 31.6042V30.4938C6.97917 28.364 8.71812 26.625 10.8479 26.625H33.3125C33.6998 26.625 34.0208 26.946 34.0208 27.3333Z" fill="#905CF7" stroke="#905CF7" stroke-width="2"/>
<path d="M26.4792 3.41666H14.5208C7.68751 3.41666 5.97917 5.125 5.97917 11.9583V24.9075C7.27751 23.7629 8.98584 23.0625 10.8479 23.0625H33.3125C34.2521 23.0625 35.0208 22.2937 35.0208 21.3542V11.9583C35.0208 5.125 33.3125 3.41666 26.4792 3.41666ZM22.2083 18.3646H13.6667C12.9663 18.3646 12.3854 17.7837 12.3854 17.0833C12.3854 16.3829 12.9663 15.8021 13.6667 15.8021H22.2083C22.9088 15.8021 23.4896 16.3829 23.4896 17.0833C23.4896 17.7837 22.9088 18.3646 22.2083 18.3646ZM27.3333 12.3854H13.6667C12.9663 12.3854 12.3854 11.8046 12.3854 11.1042C12.3854 10.4037 12.9663 9.82291 13.6667 9.82291H27.3333C28.0338 9.82291 28.6146 10.4037 28.6146 11.1042C28.6146 11.8046 28.0338 12.3854 27.3333 12.3854Z" fill="#905CF7"/>
</svg>
