<svg width="41" height="41" viewBox="0 0 41 41" fill="none" xmlns="http://www.w3.org/2000/svg">
<path d="M14.3329 31.5871V14.2304C14.3329 13.5471 14.5379 12.8808 14.9137 12.3171L19.5775 5.38125C20.3121 4.27083 22.14 3.485 23.6946 4.06583C25.3687 4.62958 26.4791 6.50875 26.1204 8.18291L25.2321 13.7692C25.1637 14.2817 25.3004 14.7429 25.5908 15.1017C25.8812 15.4262 26.3083 15.6312 26.7696 15.6312H33.7908C35.1404 15.6312 36.3021 16.1779 36.9854 17.1346C37.6346 18.0571 37.7541 19.2529 37.3271 20.4658L33.1246 33.2612C32.595 35.3796 30.2887 37.105 27.9996 37.105H21.3371C20.1925 37.105 18.5866 36.7121 17.8521 35.9775L15.6654 34.2862C14.8283 33.6542 14.3329 32.6462 14.3329 31.5871Z" fill="#8F5CF6"/>
<path d="M8.90038 10.8992H7.14079C4.49288 10.8992 3.41663 11.9242 3.41663 14.4525V31.6383C3.41663 34.1667 4.49288 35.1917 7.14079 35.1917H8.90038C11.5483 35.1917 12.6245 34.1667 12.6245 31.6383V14.4525C12.6245 11.9242 11.5483 10.8992 8.90038 10.8992Z" fill="#8F5CF6"/>
</svg>
