<svg width="41" height="41" viewBox="0 0 41 41" fill="none" xmlns="http://www.w3.org/2000/svg">
<path d="M36.1312 10.5404C35.4307 10.1646 33.9616 9.77165 31.9628 11.1725L29.4516 12.9491C29.2637 7.63623 26.9574 5.55206 21.3541 5.55206H11.1041C5.26158 5.55206 2.9895 7.82415 2.9895 13.6666V27.3333C2.9895 31.2625 5.12492 35.4479 11.1041 35.4479H21.3541C26.9574 35.4479 29.2637 33.3637 29.4516 28.0508L31.9628 29.8275C33.022 30.5791 33.9445 30.8183 34.6791 30.8183C35.3112 30.8183 35.8066 30.6304 36.1312 30.4596C36.8316 30.1008 38.0103 29.1271 38.0103 26.6841V14.3158C38.0103 11.8729 36.8316 10.8991 36.1312 10.5404ZM18.7916 19.4408C17.032 19.4408 15.5799 18.0058 15.5799 16.2291C15.5799 14.4525 17.032 13.0175 18.7916 13.0175C20.5512 13.0175 22.0033 14.4525 22.0033 16.2291C22.0033 18.0058 20.5512 19.4408 18.7916 19.4408Z" fill="#8F5CF6"/>
</svg>
