<svg width="98" height="10" viewBox="0 0 98 10" fill="none" xmlns="http://www.w3.org/2000/svg">
<path d="M4.70932 3.0026C4.70932 3.52427 4.52943 3.95899 4.16966 4.30677C3.81589 4.64855 3.27324 4.81944 2.5417 4.81944H1.33647V7.43677H0.517997V1.16777H2.5417C3.24925 1.16777 3.78591 1.33866 4.15168 1.68045C4.52344 2.02223 4.70932 2.46295 4.70932 3.0026ZM2.5417 4.14487C2.99741 4.14487 3.3332 4.04593 3.54906 3.84806C3.76492 3.65019 3.87285 3.36837 3.87285 3.0026C3.87285 2.22909 3.42914 1.84234 2.5417 1.84234H1.33647V4.14487H2.5417ZM7.87621 7.51772C7.4145 7.51772 6.99477 7.41278 6.61701 7.20292C6.24525 6.99305 5.95144 6.69624 5.73558 6.31249C5.52571 5.92273 5.42078 5.47302 5.42078 4.96335C5.42078 4.45967 5.52871 4.01595 5.74457 3.6322C5.96643 3.24245 6.26624 2.94564 6.644 2.74177C7.02176 2.5319 7.44449 2.42697 7.91219 2.42697C8.37989 2.42697 8.80262 2.5319 9.18038 2.74177C9.55814 2.94564 9.85495 3.23945 10.0708 3.6232C10.2927 4.00696 10.4036 4.45367 10.4036 4.96335C10.4036 5.47302 10.2897 5.92273 10.0618 6.31249C9.83996 6.69624 9.53715 6.99305 9.15339 7.20292C8.76964 7.41278 8.34391 7.51772 7.87621 7.51772ZM7.87621 6.79818C8.17002 6.79818 8.44585 6.72922 8.70368 6.59131C8.96152 6.4534 9.16838 6.24653 9.32428 5.9707C9.48618 5.69488 9.56713 5.3591 9.56713 4.96335C9.56713 4.5676 9.48918 4.23182 9.33328 3.95599C9.17738 3.68017 8.97351 3.4763 8.72167 3.34438C8.46983 3.20647 8.197 3.13751 7.90319 3.13751C7.60338 3.13751 7.32756 3.20647 7.07572 3.34438C6.82988 3.4763 6.632 3.68017 6.4821 3.95599C6.3322 4.23182 6.25724 4.5676 6.25724 4.96335C6.25724 5.36509 6.3292 5.70387 6.47311 5.9797C6.62301 6.25552 6.82088 6.46239 7.06673 6.6003C7.31257 6.73222 7.5824 6.79818 7.87621 6.79818ZM18.0455 2.50792L16.5075 7.43677H15.6621L14.4748 3.52427L13.2876 7.43677H12.4421L10.8951 2.50792H11.7316L12.8649 6.64527L14.0881 2.50792H14.9245L16.1208 6.65427L17.2361 2.50792H18.0455ZM23.355 4.78346C23.355 4.93936 23.346 5.10426 23.328 5.27815H19.3885C19.4185 5.76384 19.5834 6.14459 19.8832 6.42042C20.189 6.69024 20.5578 6.82516 20.9895 6.82516C21.3433 6.82516 21.6371 6.74421 21.8709 6.58231C22.1108 6.41442 22.2787 6.19256 22.3746 5.91674H23.256C23.1241 6.39044 22.8603 6.77719 22.4645 7.077C22.0688 7.37081 21.5771 7.51772 20.9895 7.51772C20.5218 7.51772 20.102 7.41278 19.7303 7.20292C19.3645 6.99305 19.0767 6.69624 18.8668 6.31249C18.657 5.92273 18.552 5.47302 18.552 4.96335C18.552 4.45367 18.654 4.00696 18.8578 3.6232C19.0617 3.23945 19.3465 2.94564 19.7123 2.74177C20.0841 2.5319 20.5098 2.42697 20.9895 2.42697C21.4572 2.42697 21.8709 2.5289 22.2307 2.73277C22.5905 2.93664 22.8663 3.21846 23.0582 3.57823C23.256 3.93201 23.355 4.33375 23.355 4.78346ZM22.5095 4.61257C22.5095 4.30077 22.4406 4.03394 22.3026 3.81208C22.1647 3.58423 21.9758 3.41334 21.736 3.29941C21.5022 3.17949 21.2413 3.11953 20.9535 3.11953C20.5398 3.11953 20.186 3.25144 19.8922 3.51527C19.6044 3.7791 19.4395 4.14487 19.3975 4.61257H22.5095ZM25.2538 3.30841C25.3977 3.02659 25.6016 2.80773 25.8654 2.65182C26.1352 2.49592 26.462 2.41797 26.8458 2.41797V3.26343H26.6299C25.7125 3.26343 25.2538 3.76112 25.2538 4.75648V7.43677H24.4353V2.50792H25.2538V3.30841ZM32.2877 4.78346C32.2877 4.93936 32.2787 5.10426 32.2608 5.27815H28.3213C28.3513 5.76384 28.5161 6.14459 28.816 6.42042C29.1218 6.69024 29.4905 6.82516 29.9222 6.82516C30.276 6.82516 30.5698 6.74421 30.8037 6.58231C31.0435 6.41442 31.2114 6.19256 31.3074 5.91674H32.1888C32.0569 6.39044 31.7931 6.77719 31.3973 7.077C31.0016 7.37081 30.5099 7.51772 29.9222 7.51772C29.4545 7.51772 29.0348 7.41278 28.6631 7.20292C28.2973 6.99305 28.0095 6.69624 27.7996 6.31249C27.5897 5.92273 27.4848 5.47302 27.4848 4.96335C27.4848 4.45367 27.5867 4.00696 27.7906 3.6232C27.9945 3.23945 28.2793 2.94564 28.6451 2.74177C29.0168 2.5319 29.4426 2.42697 29.9222 2.42697C30.3899 2.42697 30.8037 2.5289 31.1635 2.73277C31.5232 2.93664 31.799 3.21846 31.9909 3.57823C32.1888 3.93201 32.2877 4.33375 32.2877 4.78346ZM31.4423 4.61257C31.4423 4.30077 31.3733 4.03394 31.2354 3.81208C31.0975 3.58423 30.9086 3.41334 30.6688 3.29941C30.4349 3.17949 30.1741 3.11953 29.8863 3.11953C29.4725 3.11953 29.1188 3.25144 28.8249 3.51527C28.5371 3.7791 28.3722 4.14487 28.3303 4.61257H31.4423ZM33.0623 4.95435C33.0623 4.45068 33.1642 4.00996 33.3681 3.6322C33.572 3.24844 33.8508 2.95163 34.2046 2.74177C34.5643 2.5319 34.9661 2.42697 35.4098 2.42697C35.7936 2.42697 36.1503 2.51691 36.4801 2.6968C36.8099 2.87068 37.0617 3.10154 37.2356 3.38935V0.78102H38.0631V7.43677H37.2356V6.51036C37.0737 6.80417 36.8339 7.04702 36.5161 7.23889C36.1983 7.42478 35.8265 7.51772 35.4008 7.51772C34.9631 7.51772 34.5643 7.40978 34.2046 7.19392C33.8508 6.97806 33.572 6.67525 33.3681 6.2855C33.1642 5.89575 33.0623 5.45204 33.0623 4.95435ZM37.2356 4.96335C37.2356 4.59159 37.1607 4.26779 37.0108 3.99197C36.8609 3.71614 36.657 3.50628 36.3992 3.36237C36.1473 3.21247 35.8685 3.13751 35.5627 3.13751C35.2569 3.13751 34.9781 3.20947 34.7262 3.35338C34.4744 3.49728 34.2735 3.70715 34.1236 3.98297C33.9737 4.2588 33.8988 4.58259 33.8988 4.95435C33.8988 5.33211 33.9737 5.6619 34.1236 5.94372C34.2735 6.21955 34.4744 6.43241 34.7262 6.58231C34.9781 6.72622 35.2569 6.79818 35.5627 6.79818C35.8685 6.79818 36.1473 6.72622 36.3992 6.58231C36.657 6.43241 36.8609 6.21955 37.0108 5.94372C37.1607 5.6619 37.2356 5.33511 37.2356 4.96335ZM44.9831 4.20783C45.211 4.24381 45.4178 4.33675 45.6037 4.48665C45.7956 4.63656 45.9455 4.82244 46.0534 5.0443C46.1674 5.26615 46.2243 5.503 46.2243 5.75484C46.2243 6.07264 46.1434 6.36046 45.9815 6.61829C45.8196 6.87013 45.5827 7.071 45.2709 7.22091C44.9651 7.36481 44.6024 7.43677 44.1826 7.43677H41.8441V1.16777H44.0927C44.5184 1.16777 44.8812 1.23973 45.181 1.38363C45.4808 1.52155 45.7057 1.71043 45.8556 1.95027C46.0055 2.19012 46.0804 2.45995 46.0804 2.75976C46.0804 3.13152 45.9785 3.44032 45.7746 3.68616C45.5767 3.92601 45.3129 4.0999 44.9831 4.20783ZM42.6626 3.87504H44.0387C44.4225 3.87504 44.7193 3.7851 44.9292 3.60522C45.139 3.42533 45.244 3.17649 45.244 2.85869C45.244 2.5409 45.139 2.29205 44.9292 2.11217C44.7193 1.93228 44.4165 1.84234 44.0207 1.84234H42.6626V3.87504ZM44.1107 6.7622C44.5184 6.7622 44.8362 6.66626 45.0641 6.47438C45.2919 6.2825 45.4059 6.01568 45.4059 5.67389C45.4059 5.32612 45.2859 5.05329 45.0461 4.85542C44.8062 4.65155 44.4854 4.54961 44.0837 4.54961H42.6626V6.7622H44.1107ZM51.6054 2.50792L48.6373 9.75729H47.7919L48.7632 7.3828L46.7755 2.50792H47.6839L49.2309 6.50137L50.76 2.50792H51.6054Z" fill="#E3E6F3"/>
<path d="M55.6445 1.16777V7.43677H54.8261V1.16777H55.6445ZM59.441 2.41797C60.0406 2.41797 60.5263 2.60086 60.898 2.96662C61.2698 3.32639 61.4557 3.84806 61.4557 4.53162V7.43677H60.6462V4.64855C60.6462 4.15686 60.5233 3.7821 60.2774 3.52427C60.0316 3.26044 59.6958 3.12852 59.2701 3.12852C58.8384 3.12852 58.4936 3.26343 58.2357 3.53326C57.9839 3.80309 57.858 4.19584 57.858 4.71151V7.43677H57.0395V2.50792H57.858V3.20947C58.0199 2.95763 58.2387 2.76275 58.5146 2.62484C58.7964 2.48693 59.1052 2.41797 59.441 2.41797ZM64.7984 3.18249H63.764V7.43677H62.9456V3.18249H62.307V2.50792H62.9456V2.15714C62.9456 1.60549 63.0865 1.20375 63.3683 0.951911C63.6561 0.694075 64.1148 0.565158 64.7444 0.565158V1.24872C64.3846 1.24872 64.1298 1.32068 63.9799 1.46458C63.836 1.6025 63.764 1.83335 63.764 2.15714V2.50792H64.7984V3.18249ZM66.1754 1.70743C66.0195 1.70743 65.8876 1.65346 65.7797 1.54553C65.6717 1.4376 65.6178 1.30568 65.6178 1.14978C65.6178 0.993884 65.6717 0.861968 65.7797 0.754037C65.8876 0.646106 66.0195 0.592141 66.1754 0.592141C66.3253 0.592141 66.4512 0.646106 66.5532 0.754037C66.6611 0.861968 66.7151 0.993884 66.7151 1.14978C66.7151 1.30568 66.6611 1.4376 66.5532 1.54553C66.4512 1.65346 66.3253 1.70743 66.1754 1.70743ZM66.5712 2.50792V7.43677H65.7527V2.50792H66.5712ZM70.3676 2.41797C70.9672 2.41797 71.4529 2.60086 71.8246 2.96662C72.1964 3.32639 72.3823 3.84806 72.3823 4.53162V7.43677H71.5728V4.64855C71.5728 4.15686 71.4499 3.7821 71.204 3.52427C70.9582 3.26044 70.6224 3.12852 70.1967 3.12852C69.765 3.12852 69.4202 3.26343 69.1623 3.53326C68.9105 3.80309 68.7846 4.19584 68.7846 4.71151V7.43677H67.9661V2.50792H68.7846V3.20947C68.9465 2.95763 69.1653 2.76275 69.4412 2.62484C69.723 2.48693 70.0318 2.41797 70.3676 2.41797ZM74.142 1.70743C73.9861 1.70743 73.8542 1.65346 73.7463 1.54553C73.6383 1.4376 73.5844 1.30568 73.5844 1.14978C73.5844 0.993884 73.6383 0.861968 73.7463 0.754037C73.8542 0.646106 73.9861 0.592141 74.142 0.592141C74.2919 0.592141 74.4178 0.646106 74.5198 0.754037C74.6277 0.861968 74.6817 0.993884 74.6817 1.14978C74.6817 1.30568 74.6277 1.4376 74.5198 1.54553C74.4178 1.65346 74.2919 1.70743 74.142 1.70743ZM74.5378 2.50792V7.43677H73.7193V2.50792H74.5378ZM76.9311 3.18249V6.08763C76.9311 6.32748 76.982 6.49837 77.084 6.6003C77.1859 6.69624 77.3628 6.74421 77.6146 6.74421H78.2172V7.43677H77.4797C77.024 7.43677 76.6822 7.33183 76.4544 7.12197C76.2265 6.9121 76.1126 6.56732 76.1126 6.08763V3.18249H75.474V2.50792H76.1126V1.26671H76.9311V2.50792H78.2172V3.18249H76.9311ZM83.4542 2.50792L80.4861 9.75729H79.6407L80.612 7.3828L78.6243 2.50792H79.5327L81.0797 6.50137L82.6088 2.50792H83.4542ZM87.416 4.20783C87.6438 4.24381 87.8507 4.33675 88.0366 4.48665C88.2285 4.63656 88.3784 4.82244 88.4863 5.0443C88.6002 5.26615 88.6572 5.503 88.6572 5.75484C88.6572 6.07264 88.5762 6.36046 88.4143 6.61829C88.2524 6.87013 88.0156 7.071 87.7038 7.22091C87.398 7.36481 87.0352 7.43677 86.6155 7.43677H84.277V1.16777H86.5255C86.9513 1.16777 87.314 1.23973 87.6138 1.38363C87.9137 1.52155 88.1385 1.71043 88.2884 1.95027C88.4383 2.19012 88.5133 2.45995 88.5133 2.75976C88.5133 3.13152 88.4113 3.44032 88.2075 3.68616C88.0096 3.92601 87.7458 4.0999 87.416 4.20783ZM85.0955 3.87504H86.4716C86.8553 3.87504 87.1521 3.7851 87.362 3.60522C87.5719 3.42533 87.6768 3.17649 87.6768 2.85869C87.6768 2.5409 87.5719 2.29205 87.362 2.11217C87.1521 1.93228 86.8493 1.84234 86.4536 1.84234H85.0955V3.87504ZM86.5435 6.7622C86.9513 6.7622 87.2691 6.66626 87.4969 6.47438C87.7248 6.2825 87.8387 6.01568 87.8387 5.67389C87.8387 5.32612 87.7188 5.05329 87.4789 4.85542C87.2391 4.65155 86.9183 4.54961 86.5165 4.54961H85.0955V6.7622H86.5435ZM91.9426 7.51772C91.4809 7.51772 91.0612 7.41278 90.6834 7.20292C90.3117 6.99305 90.0178 6.69624 89.802 6.31249C89.5921 5.92273 89.4872 5.47302 89.4872 4.96335C89.4872 4.45967 89.5951 4.01595 89.811 3.6322C90.0328 3.24245 90.3326 2.94564 90.7104 2.74177C91.0882 2.5319 91.5109 2.42697 91.9786 2.42697C92.4463 2.42697 92.869 2.5319 93.2468 2.74177C93.6245 2.94564 93.9213 3.23945 94.1372 3.6232C94.3591 4.00696 94.47 4.45367 94.47 4.96335C94.47 5.47302 94.3561 5.92273 94.1282 6.31249C93.9064 6.69624 93.6035 6.99305 93.2198 7.20292C92.836 7.41278 92.4103 7.51772 91.9426 7.51772ZM91.9426 6.79818C92.2364 6.79818 92.5122 6.72922 92.7701 6.59131C93.0279 6.4534 93.2348 6.24653 93.3907 5.9707C93.5526 5.69488 93.6335 5.3591 93.6335 4.96335C93.6335 4.5676 93.5556 4.23182 93.3997 3.95599C93.2438 3.68017 93.0399 3.4763 92.7881 3.34438C92.5362 3.20647 92.2634 3.13751 91.9696 3.13751C91.6698 3.13751 91.394 3.20647 91.1421 3.34438C90.8963 3.4763 90.6984 3.68017 90.5485 3.95599C90.3986 4.23182 90.3236 4.5676 90.3236 4.96335C90.3236 5.36509 90.3956 5.70387 90.5395 5.9797C90.6894 6.25552 90.8873 6.46239 91.1331 6.6003C91.379 6.73222 91.6488 6.79818 91.9426 6.79818ZM96.5445 3.18249V6.08763C96.5445 6.32748 96.5955 6.49837 96.6974 6.6003C96.7993 6.69624 96.9762 6.74421 97.2281 6.74421H97.8307V7.43677H97.0932C96.6375 7.43677 96.2957 7.33183 96.0678 7.12197C95.84 6.9121 95.726 6.56732 95.726 6.08763V3.18249H95.0874V2.50792H95.726V1.26671H96.5445V2.50792H97.8307V3.18249H96.5445Z" fill="#7B40F2"/>
</svg>
