<svg width="20" height="20" viewBox="0 0 20 20" fill="none" xmlns="http://www.w3.org/2000/svg">
<path d="M10.566 16.6309C10.795 16.6841 10.8159 16.984 10.5929 17.0583L9.27626 17.4917C5.96793 18.5583 4.22626 17.6667 3.15126 14.3583L2.08459 11.0667C1.01793 7.75833 1.90126 6.00833 5.20959 4.94166L5.47692 4.85313C5.87979 4.71972 6.27538 5.12508 6.16647 5.53525C6.13579 5.6508 6.10579 5.7696 6.07626 5.89166L5.25959 9.38333C4.34293 13.3083 5.68459 15.475 9.60959 16.4083L10.566 16.6309Z" fill="#7B40F2"/>
<path d="M14.3059 2.67499L12.9142 2.34999C10.1309 1.69165 8.47255 2.23332 7.49755 4.24999C7.24755 4.75832 7.04755 5.37499 6.88088 6.08332L6.06421 9.57499C5.24755 13.0583 6.32255 14.775 9.79755 15.6L11.1975 15.9333C11.6809 16.05 12.1309 16.125 12.5475 16.1583C15.1475 16.4083 16.5309 15.1917 17.2309 12.1833L18.0475 8.69999C18.8642 5.21665 17.7975 3.49165 14.3059 2.67499ZM12.7392 11.1083C12.6642 11.3917 12.4142 11.575 12.1309 11.575C12.0809 11.575 12.0309 11.5667 11.9725 11.5583L9.54755 10.9417C9.21421 10.8583 9.01421 10.5167 9.09755 10.1833C9.18088 9.84999 9.52255 9.64999 9.85588 9.73332L12.2809 10.35C12.6225 10.4333 12.8225 10.775 12.7392 11.1083ZM15.1809 8.29165C15.1059 8.57499 14.8559 8.75832 14.5725 8.75832C14.5225 8.75832 14.4725 8.74999 14.4142 8.74165L10.3725 7.71665C10.0392 7.63332 9.83921 7.29165 9.92255 6.95832C10.0059 6.62499 10.3475 6.42499 10.6809 6.50832L14.7225 7.53332C15.0642 7.60832 15.2642 7.94999 15.1809 8.29165Z" fill="#7B40F2"/>
</svg>
