<svg width="26" height="26" viewBox="0 0 26 26" fill="none" xmlns="http://www.w3.org/2000/svg">
<path d="M17.8253 12.7167L16.8837 11.15C16.6753 10.8083 16.492 10.15 16.492 9.75001V8.19168C16.492 5.16668 14.0337 2.70834 11.017 2.70834C7.992 2.71668 5.53367 5.16668 5.53367 8.19168V9.74168C5.53367 10.1417 5.35033 10.8 5.15033 11.1417L4.20867 12.7083C3.85033 13.3167 3.767 14.0083 3.992 14.6083C4.217 15.2167 4.72533 15.7 5.392 15.9167C6.292 16.2167 7.20033 16.4333 8.12533 16.5917C8.217 16.6083 8.30866 16.6167 8.40033 16.6333C8.517 16.65 8.642 16.6667 8.767 16.6833C8.98366 16.7167 9.20033 16.7417 9.42533 16.7583C9.95033 16.8083 10.4837 16.8333 11.017 16.8333C11.542 16.8333 12.067 16.8083 12.5837 16.7583C12.7753 16.7417 12.967 16.725 13.1503 16.7C13.3003 16.6833 13.4503 16.6667 13.6003 16.6417C13.692 16.6333 13.7837 16.6167 13.8753 16.6C14.8087 16.45 15.7337 16.2167 16.6337 15.9167C17.2753 15.7 17.767 15.2167 18.0003 14.6C18.2337 13.975 18.167 13.2917 17.8253 12.7167ZM11.6253 9.33334C11.6253 9.68334 11.342 9.96668 10.992 9.96668C10.642 9.96668 10.3587 9.68334 10.3587 9.33334V6.75001C10.3587 6.40001 10.642 6.11668 10.992 6.11668C11.342 6.11668 11.6253 6.40001 11.6253 6.75001V9.33334Z" fill="#7B40F2"/>
<path d="M13.3568 17.675C13.0068 18.6417 12.0818 19.3333 10.9984 19.3333C10.3401 19.3333 9.6901 19.0667 9.23177 18.5917C8.9651 18.3417 8.7651 18.0083 8.64844 17.6667C8.75677 17.6833 8.8651 17.6917 8.98177 17.7083C9.17344 17.7333 9.37344 17.7583 9.57344 17.775C10.0484 17.8167 10.5318 17.8417 11.0151 17.8417C11.4901 17.8417 11.9651 17.8167 12.4318 17.775C12.6068 17.7583 12.7818 17.75 12.9484 17.725C13.0818 17.7083 13.2151 17.6917 13.3568 17.675Z" fill="#7B40F2"/>
<path d="M1 1L25 25" stroke="white"/>
</svg>
