<svg width="20" height="20" viewBox="0 0 20 20" fill="none" xmlns="http://www.w3.org/2000/svg">
<path d="M12.8245 4.34166L13.9995 6.69166C14.1579 7.01666 14.5829 7.325 14.9412 7.39166L17.0662 7.74166C18.4245 7.96666 18.7412 8.95 17.7662 9.93333L16.1079 11.5917C15.8329 11.8667 15.6745 12.4083 15.7662 12.8L16.2412 14.85C16.6162 16.4667 15.7495 17.1 14.3245 16.25L12.3329 15.0667C11.9745 14.85 11.3745 14.85 11.0162 15.0667L9.02454 16.25C7.59954 17.0917 6.73288 16.4667 7.10788 14.85L7.58288 12.8C7.65788 12.4 7.49954 11.8583 7.22454 11.5833L5.56621 9.925C4.59121 8.95 4.90788 7.96666 6.26621 7.73333L8.39121 7.38333C8.74954 7.325 9.17454 7.00833 9.33288 6.68333L10.5079 4.33333C11.1495 3.06666 12.1829 3.06666 12.8245 4.34166Z" fill="#7B40F2"/>
</svg>
