<svg width="20" height="20" viewBox="0 0 20 20" fill="none" xmlns="http://www.w3.org/2000/svg">
<path d="M18.3307 8.95834C18.6724 8.95834 18.9557 8.67501 18.9557 8.33334V7.50001C18.9557 3.82501 17.8391 2.70834 14.1641 2.70834H8.95573V4.58334C8.95573 4.92501 8.6724 5.20834 8.33073 5.20834C7.98906 5.20834 7.70573 4.92501 7.70573 4.58334V2.70834H5.83073C2.15573 2.70834 1.03906 3.82501 1.03906 7.50001V7.91668C1.03906 8.25834 1.3224 8.54168 1.66406 8.54168C2.46406 8.54168 3.1224 9.20001 3.1224 10C3.1224 10.8 2.46406 11.4583 1.66406 11.4583C1.3224 11.4583 1.03906 11.7417 1.03906 12.0833V12.5C1.03906 16.175 2.15573 17.2917 5.83073 17.2917H7.70573V15.4167C7.70573 15.075 7.98906 14.7917 8.33073 14.7917C8.6724 14.7917 8.95573 15.075 8.95573 15.4167V17.2917H14.1641C17.8391 17.2917 18.9557 16.175 18.9557 12.5C18.9557 12.1583 18.6724 11.875 18.3307 11.875C17.5307 11.875 16.8724 11.2167 16.8724 10.4167C16.8724 9.61668 17.5307 8.95834 18.3307 8.95834ZM8.95573 11.8083C8.95573 12.15 8.6724 12.4333 8.33073 12.4333C7.98906 12.4333 7.70573 12.15 7.70573 11.8083V8.19168C7.70573 7.85001 7.98906 7.56668 8.33073 7.56668C8.6724 7.56668 8.95573 7.85001 8.95573 8.19168V11.8083Z" fill="#7B40F2"/>
</svg>
