<svg width="20" height="20" viewBox="0 0 20 20" fill="none" xmlns="http://www.w3.org/2000/svg">
<path d="M10.0013 1.66667C5.40964 1.66667 1.66797 5.40834 1.66797 10C1.66797 14.5917 5.40964 18.3333 10.0013 18.3333C14.593 18.3333 18.3346 14.5917 18.3346 10C18.3346 5.40834 14.593 1.66667 10.0013 1.66667ZM13.6263 12.975C13.5096 13.175 13.3013 13.2833 13.0846 13.2833C12.9763 13.2833 12.868 13.2583 12.768 13.1917L10.1846 11.65C9.54297 11.2667 9.06797 10.425 9.06797 9.68334V6.26667C9.06797 5.92501 9.3513 5.64167 9.69297 5.64167C10.0346 5.64167 10.318 5.92501 10.318 6.26667V9.68334C10.318 9.98334 10.568 10.425 10.8263 10.575L13.4096 12.1167C13.7096 12.2917 13.8096 12.675 13.6263 12.975Z" fill="white"/>
</svg>
