<svg width="67" height="67" viewBox="0 0 67 67" fill="none" xmlns="http://www.w3.org/2000/svg">
<path d="M33.4987 5.58331C26.1845 5.58331 20.2383 11.5296 20.2383 18.8437C20.2383 26.0183 25.8495 31.825 33.1637 32.0762C33.387 32.0483 33.6104 32.0483 33.7779 32.0762C33.8337 32.0762 33.8616 32.0762 33.9174 32.0762C33.9454 32.0762 33.9454 32.0762 33.9733 32.0762C41.1199 31.825 46.7312 26.0183 46.7591 18.8437C46.7591 11.5296 40.8129 5.58331 33.4987 5.58331Z" fill="#C1C7D4"/>
<path d="M47.6827 39.5021C39.8939 34.3096 27.1918 34.3096 19.3472 39.5021C15.8018 41.875 13.8477 45.0854 13.8477 48.5192C13.8477 51.9529 15.8018 55.1354 19.3193 57.4804C23.2277 60.1046 28.3643 61.4167 33.501 61.4167C38.6377 61.4167 43.7743 60.1046 47.6827 57.4804C51.2002 55.1075 53.1543 51.925 53.1543 48.4634C53.1264 45.0296 51.2002 41.8471 47.6827 39.5021Z" fill="#C1C7D4"/>
</svg>
