<svg width="20" height="20" viewBox="0 0 20 20" fill="none" xmlns="http://www.w3.org/2000/svg">
<path d="M16.1182 12.075L15.2849 10.6917C15.1099 10.3833 14.9516 9.80001 14.9516 9.45834V7.35001C14.9516 5.39167 13.8016 3.70001 12.1432 2.90834C11.7099 2.14167 10.9099 1.66667 9.99325 1.66667C9.08491 1.66667 8.26825 2.15834 7.83491 2.93334C6.20991 3.74167 5.08491 5.41667 5.08491 7.35001V9.45834C5.08491 9.80001 4.92658 10.3833 4.75158 10.6833L3.90991 12.075C3.57658 12.6333 3.50158 13.25 3.70991 13.8167C3.90991 14.375 4.38491 14.8083 5.00158 15.0167C6.61825 15.5667 8.31825 15.8333 10.0182 15.8333C11.7182 15.8333 13.4182 15.5667 15.0349 15.025C15.6182 14.8333 16.0682 14.3917 16.2849 13.8167C16.5016 13.2417 16.4432 12.6083 16.1182 12.075Z" fill="white"/>
<path d="M12.3568 16.675C12.0068 17.6417 11.0818 18.3333 9.99844 18.3333C9.3401 18.3333 8.6901 18.0667 8.23177 17.5917C7.9651 17.3417 7.7651 17.0083 7.64844 16.6667C7.75677 16.6833 7.8651 16.6917 7.98177 16.7083C8.17344 16.7333 8.37344 16.7583 8.57344 16.775C9.04844 16.8167 9.53177 16.8417 10.0151 16.8417C10.4901 16.8417 10.9651 16.8167 11.4318 16.775C11.6068 16.7583 11.7818 16.75 11.9484 16.725C12.0818 16.7083 12.2151 16.6917 12.3568 16.675Z" fill="white"/>
</svg>
