<svg width="20" height="20" viewBox="0 0 20 20" fill="none" xmlns="http://www.w3.org/2000/svg">
<path d="M10.0013 1.66666C5.4013 1.66666 1.66797 5.4 1.66797 10C1.66797 14.6 5.4013 18.3333 10.0013 18.3333C14.6013 18.3333 18.3346 14.6 18.3346 10C18.3346 5.4 14.6013 1.66666 10.0013 1.66666ZM12.943 11.025L8.6263 14.0167C7.99297 14.4583 7.6263 14.2 7.80964 13.4583L8.6013 10.2583L7.2263 9.91666C6.6013 9.76666 6.5263 9.33333 7.0513 8.96666L11.368 5.975C12.0013 5.53333 12.368 5.79166 12.1846 6.53333L11.393 9.73333L12.768 10.075C13.393 10.2333 13.468 10.6583 12.943 11.025Z" fill="white"/>
</svg>
