<svg width="20" height="20" viewBox="0 0 20 20" fill="none" xmlns="http://www.w3.org/2000/svg">
<path d="M15.2237 2.79167C14.832 2.73333 14.382 2.70833 13.7487 2.70833H6.2487C5.6237 2.70833 5.16536 2.73333 4.7987 2.78333C2.00703 3.09167 1.45703 4.75 1.45703 7.5V12.5C1.45703 15.25 2.00703 16.9083 4.7737 17.2083C5.16536 17.2667 5.61536 17.2917 6.2487 17.2917H13.7487C14.3737 17.2917 14.832 17.2667 15.1987 17.2167C17.9904 16.9083 18.5404 15.2583 18.5404 12.5V7.5C18.5404 4.75 17.9904 3.09167 15.2237 2.79167ZM8.40703 7.5C8.8737 7.5 9.2487 7.875 9.2487 8.33333C9.2487 8.79167 8.8737 9.16667 8.41536 9.16667C7.95703 9.16667 7.58203 8.79167 7.58203 8.33333C7.58203 7.875 7.9487 7.5 8.40703 7.5ZM5.90703 7.5C6.38203 7.5 6.7487 7.875 6.7487 8.33333C6.7487 8.79167 6.3737 9.16667 5.91536 9.16667C5.45703 9.16667 5.08203 8.79167 5.08203 8.33333C5.08203 7.875 5.4487 7.5 5.90703 7.5ZM14.1654 13.5417H5.8487C5.50703 13.5417 5.21536 13.2583 5.21536 12.9167C5.21536 12.575 5.49036 12.2917 5.83203 12.2917H14.1654C14.507 12.2917 14.7904 12.575 14.7904 12.9167C14.7904 13.2583 14.507 13.5417 14.1654 13.5417ZM14.1654 8.95833H11.2487C10.907 8.95833 10.6237 8.675 10.6237 8.33333C10.6237 7.99167 10.907 7.70833 11.2487 7.70833H14.1654C14.507 7.70833 14.7904 7.99167 14.7904 8.33333C14.7904 8.675 14.507 8.95833 14.1654 8.95833Z" fill="#F9FAFE"/>
</svg>
